<svg width="593" height="563" viewBox="0 0 593 563" fill="none" xmlns="http://www.w3.org/2000/svg">
<g id="undraw_App_wireframe_re_d467 1" clip-path="url(#clip0)">
<path id="Vector" d="M433.775 412.285C434.794 411.329 435.592 410.16 436.111 408.862C436.63 407.564 436.858 406.168 436.78 404.772C436.701 403.377 436.318 402.015 435.656 400.783C434.995 399.552 434.071 398.48 432.951 397.644L438.306 376.458L426.229 370.062L419.088 400.088C417.809 402.064 417.299 404.44 417.654 406.767C418.009 409.094 419.206 411.21 421.016 412.713C422.826 414.216 425.125 415.003 427.477 414.924C429.828 414.846 432.069 413.906 433.775 412.285V412.285Z" fill="#FFB8B8"/>
<path id="Vector_2" d="M418.665 388.975L428.94 323.193C429.001 322.806 435.08 284.297 437.096 272.197C439.177 259.704 448.844 259.559 448.942 259.559H454.261L460.484 287.572L448.226 343.777L436.916 390.354L418.665 388.975Z" fill="#2196F3"/>
<path id="Vector_3" d="M592.228 563H0.772135C0.567352 563 0.370956 562.919 0.226153 562.774C0.0813492 562.629 0 562.432 0 562.228C0 562.023 0.0813492 561.826 0.226153 561.681C0.370956 561.536 0.567352 561.455 0.772135 561.455H592.228C592.433 561.455 592.629 561.536 592.774 561.681C592.919 561.826 593 562.023 593 562.228C593 562.432 592.919 562.629 592.774 562.774C592.629 562.919 592.433 563 592.228 563Z" fill="#3F3D56"/>
<path id="Vector_4" d="M455.55 551.311H443.051L437.106 503.085L455.552 503.086L455.55 551.311Z" fill="#FFB8B8"/>
<path id="Vector_5" d="M430.443 547.739H458.228V562.921H418.948V559.238C418.948 556.188 420.159 553.263 422.315 551.107C424.47 548.95 427.394 547.739 430.443 547.739V547.739Z" fill="#2F2E41"/>
<path id="Vector_6" d="M505.502 551.311H493.005L487.058 503.085L505.505 503.086L505.502 551.311Z" fill="#FFB8B8"/>
<path id="Vector_7" d="M480.395 547.739H508.181V562.921H468.901V559.238C468.901 556.188 470.112 553.263 472.267 551.107C474.423 548.95 477.347 547.739 480.395 547.739V547.739Z" fill="#2F2E41"/>
<path id="Vector_8" d="M509.948 375.28L508.928 446.67L507.908 540.496L485.481 538.456L474.267 408.935L459.995 538.456H436.84L434.508 407.915L442.664 379.359L509.948 375.28Z" fill="#2F2E41"/>
<path id="Vector_9" d="M440.429 379.795L440.101 379.647L452.882 292.186L446.384 265.75C446.047 264.375 446.225 262.923 446.885 261.671C447.546 260.418 448.643 259.451 449.968 258.954L461.66 254.568L465.79 243.204L498.38 246.717L499.181 255.598C502.712 256.731 531.794 266.42 529.787 277.46C527.807 288.357 516.113 322.639 515.519 324.376L513.471 373.542L513.22 373.668C512.916 373.819 490.454 384.868 466.051 384.867C457.457 384.866 448.618 383.495 440.429 379.795Z" fill="#2196F3"/>
<path id="Vector_10" d="M485.31 382.483C485.376 381.086 485.747 379.721 486.398 378.484C487.048 377.247 487.962 376.167 489.075 375.321C490.187 374.475 491.472 373.884 492.838 373.588C494.204 373.293 495.618 373.301 496.98 373.611L509.622 355.789L522.322 360.832L504.116 385.75C503.443 388.006 501.967 389.936 499.966 391.175C497.966 392.414 495.58 392.876 493.262 392.473C490.944 392.071 488.854 390.831 487.388 388.99C485.923 387.149 485.183 384.833 485.31 382.483V382.483Z" fill="#FFB8B8"/>
<path id="Vector_11" d="M499.177 367.156L521.653 329.339L512.496 304.911L524.968 271.638L525.427 271.836C525.729 271.965 532.816 275.129 533.866 286.458L548.198 331.52L509.947 381.162L499.177 367.156Z" fill="#2196F3"/>
<g id="head">
<path id="Vector_12" d="M501.397 225.366C507.613 213.991 503.434 199.728 492.063 193.51C480.692 187.292 466.435 191.472 460.219 202.848C454.003 214.223 458.182 228.486 469.553 234.704C480.924 240.922 495.181 236.742 501.397 225.366Z" fill="#FFB8B8"/>
<path id="Vector_13" d="M465.054 202.673C467.483 205.549 471.594 206.361 475.386 206.693C483.087 207.369 494.285 206.273 501.81 204.535C502.348 209.743 500.883 215.358 503.949 219.643C505.387 214.456 506.223 209.121 506.44 203.743C506.533 201.437 506.497 199.051 505.56 196.933C504.623 194.816 502.58 193.019 500.227 193C501.975 191.673 504.023 190.797 506.189 190.45L498.739 186.704L500.652 184.739L487.163 183.913L491.07 181.431C485.19 180.622 479.241 180.434 473.322 180.87C470.574 181.073 467.7 181.46 465.473 183.053C463.245 184.646 461.959 187.813 463.341 190.152C461.61 190.436 459.981 191.158 458.606 192.249C457.232 193.339 456.159 194.763 455.489 196.385C454.496 198.903 454.587 201.7 454.893 204.383C455.401 208.675 456.398 212.894 457.865 216.959" fill="#2F2E41"/>
</g>
<g id="phone">
<path id="Vector_14" d="M308 181.24H305.267V106.346C305.267 94.8501 300.702 83.8248 292.576 75.6958C284.451 67.5668 273.43 63 261.938 63H103.329C97.6391 63 92.0048 64.1212 86.7479 66.2995C81.4909 68.4778 76.7143 71.6707 72.6909 75.6957C68.6674 79.7208 65.4758 84.4993 63.2983 89.7583C61.1208 95.0173 60 100.654 60 106.346V517.217C60 522.909 61.1207 528.546 63.2982 533.805C65.4757 539.064 68.6673 543.842 72.6908 547.868C76.7142 551.893 81.4908 555.085 86.7477 557.264C92.0047 559.442 97.639 560.563 103.329 560.563H261.938C273.43 560.563 284.45 555.997 292.576 547.868C300.702 539.739 305.267 528.713 305.267 517.217V234.55H308L308 181.24Z" fill="black"/>
<path id="Vector_15" d="M263.686 74.2772H242.983C243.935 76.6124 244.298 79.146 244.041 81.6548C243.784 84.1636 242.914 86.5706 241.507 88.6638C240.101 90.757 238.202 92.4721 235.977 93.6581C233.752 94.8441 231.27 95.4645 228.749 95.4647H137.884C135.363 95.4645 132.881 94.8441 130.656 93.6581C128.431 92.4722 126.532 90.757 125.126 88.6638C123.72 86.5706 122.85 84.1636 122.593 81.6548C122.335 79.146 122.699 76.6124 123.651 74.2772H104.314C95.7318 74.2772 87.5015 77.6877 81.4332 83.7583C75.365 89.8289 71.9559 98.0625 71.9558 106.648V516.916C71.9558 521.167 72.7928 525.376 74.4189 529.303C76.045 533.231 78.4285 536.799 81.4332 539.805C84.4379 542.811 88.005 545.195 91.9308 546.822C95.8566 548.449 100.064 549.286 104.314 549.286H263.686C267.936 549.286 272.143 548.449 276.069 546.822C279.995 545.195 283.562 542.811 286.567 539.805C289.571 536.799 291.955 533.231 293.581 529.303C295.207 525.376 296.044 521.167 296.044 516.916V516.916V106.648C296.044 102.397 295.207 98.1874 293.581 94.26C291.955 90.3326 289.571 86.7642 286.567 83.7583C283.562 80.7524 279.995 78.368 276.069 76.7413C272.143 75.1145 267.936 74.2772 263.686 74.2772V74.2772Z" fill="white"/>
<g id="box3">
<g id="Vector_16">
<path d="M195.154 207.269H275.697L256.742 245.947C256.403 246.641 255.914 247.216 255.326 247.617C254.737 248.017 254.07 248.228 253.39 248.228C252.711 248.228 252.043 248.017 251.455 247.617C250.866 247.216 250.378 246.641 250.038 245.947L241.941 229.424L228.173 257.519C227.748 258.387 227.136 259.107 226.399 259.609C225.663 260.11 224.827 260.374 223.976 260.374C223.126 260.374 222.29 260.11 221.553 259.609C220.817 259.107 220.205 258.387 219.78 257.519L195.154 207.269ZM273.218 208.954H197.632L221.019 256.676C221.319 257.288 221.75 257.795 222.269 258.149C222.788 258.502 223.377 258.688 223.976 258.688C224.576 258.688 225.165 258.502 225.684 258.149C226.203 257.795 226.634 257.288 226.934 256.676L241.941 226.053L251.278 245.104C251.492 245.541 251.8 245.904 252.17 246.157C252.541 246.409 252.962 246.542 253.39 246.542C253.818 246.542 254.239 246.409 254.61 246.157C254.981 245.904 255.289 245.541 255.503 245.104L273.218 208.954Z" fill="#2196F3"/>
<path d="M195.154 207.269H275.697L256.742 245.947C256.403 246.641 255.914 247.216 255.326 247.617C254.737 248.017 254.07 248.228 253.39 248.228C252.711 248.228 252.043 248.017 251.455 247.617C250.866 247.216 250.378 246.641 250.038 245.947L241.941 229.424L228.173 257.519C227.748 258.387 227.136 259.107 226.399 259.609C225.663 260.11 224.827 260.374 223.976 260.374C223.126 260.374 222.29 260.11 221.553 259.609C220.817 259.107 220.205 258.387 219.78 257.519L195.154 207.269ZM273.218 208.954H197.632L221.019 256.676C221.319 257.288 221.75 257.795 222.269 258.149C222.788 258.502 223.377 258.688 223.976 258.688C224.576 258.688 225.165 258.502 225.684 258.149C226.203 257.795 226.634 257.288 226.934 256.676L241.941 226.053L251.278 245.104C251.492 245.541 251.8 245.904 252.17 246.157C252.541 246.409 252.962 246.542 253.39 246.542C253.818 246.542 254.239 246.409 254.61 246.157C254.981 245.904 255.289 245.541 255.503 245.104L273.218 208.954Z" fill="url(#paint0_linear)"/>
</g>
<path id="Vector_17" d="M279.188 262.265H193.269C192.32 262.264 191.41 261.887 190.739 261.215C190.068 260.544 189.691 259.634 189.689 258.684V210.711C189.691 209.762 190.068 208.852 190.739 208.18C191.41 207.509 192.32 207.131 193.269 207.13H279.188C280.137 207.131 281.047 207.509 281.718 208.18C282.39 208.852 282.767 209.762 282.768 210.711V258.684C282.767 259.634 282.39 260.544 281.718 261.215C281.047 261.887 280.137 262.264 279.188 262.265ZM193.269 208.563C192.7 208.563 192.154 208.79 191.751 209.193C191.349 209.595 191.122 210.142 191.121 210.711V258.684C191.122 259.254 191.349 259.8 191.751 260.203C192.154 260.606 192.7 260.832 193.269 260.833H279.188C279.758 260.832 280.304 260.606 280.706 260.203C281.109 259.8 281.336 259.254 281.336 258.684V210.711C281.336 210.142 281.109 209.595 280.706 209.193C280.304 208.79 279.758 208.563 279.188 208.563L193.269 208.563Z" fill="#0F568E"/>
</g>
<g id="box2">
<g id="Vector_18">
<path d="M173.146 262.274H92.5466L111.514 229.408C111.854 228.818 112.343 228.329 112.932 227.989C113.521 227.649 114.189 227.47 114.869 227.47C115.549 227.47 116.217 227.649 116.805 227.989C117.394 228.329 117.883 228.818 118.223 229.408L126.326 243.448L140.103 219.575C140.529 218.837 141.141 218.225 141.878 217.799C142.616 217.373 143.452 217.149 144.303 217.149C145.155 217.149 145.991 217.373 146.728 217.799C147.465 218.225 148.077 218.837 148.503 219.575L173.146 262.274ZM95.0267 260.842H170.666L147.263 220.291C146.963 219.771 146.532 219.34 146.012 219.04C145.493 218.74 144.903 218.582 144.303 218.582C143.703 218.582 143.114 218.74 142.595 219.04C142.075 219.34 141.644 219.771 141.344 220.291L126.326 246.313L116.983 230.124C116.769 229.753 116.461 229.444 116.089 229.23C115.718 229.015 115.297 228.903 114.869 228.903C114.44 228.903 114.019 229.015 113.648 229.23C113.277 229.444 112.969 229.753 112.755 230.124L95.0267 260.842Z" fill="#2196F3"/>
<path d="M173.146 262.274H92.5466L111.514 229.408C111.854 228.818 112.343 228.329 112.932 227.989C113.521 227.649 114.189 227.47 114.869 227.47C115.549 227.47 116.217 227.649 116.805 227.989C117.394 228.329 117.883 228.818 118.223 229.408L126.326 243.448L140.103 219.575C140.529 218.837 141.141 218.225 141.878 217.799C142.616 217.373 143.452 217.149 144.303 217.149C145.155 217.149 145.991 217.373 146.728 217.799C147.465 218.225 148.077 218.837 148.503 219.575L173.146 262.274ZM95.0267 260.842H170.666L147.263 220.291C146.963 219.771 146.532 219.34 146.012 219.04C145.493 218.74 144.903 218.582 144.303 218.582C143.703 218.582 143.114 218.74 142.595 219.04C142.075 219.34 141.644 219.771 141.344 220.291L126.326 246.313L116.983 230.124C116.769 229.753 116.461 229.444 116.089 229.23C115.718 229.015 115.297 228.903 114.869 228.903C114.44 228.903 114.019 229.015 113.648 229.23C113.277 229.444 112.969 229.753 112.755 230.124L95.0267 260.842Z" fill="url(#paint1_linear)"/>
</g>
<path id="Vector_19" d="M173.222 262.265H87.3031C86.354 262.264 85.4441 261.887 84.773 261.215C84.1018 260.544 83.7243 259.634 83.7232 258.684V210.711C83.7243 209.762 84.1018 208.852 84.773 208.18C85.4441 207.509 86.354 207.131 87.3031 207.13H173.222C174.171 207.131 175.081 207.509 175.752 208.18C176.423 208.852 176.801 209.762 176.802 210.711V258.684C176.801 259.634 176.423 260.544 175.752 261.215C175.081 261.887 174.171 262.264 173.222 262.265V262.265ZM87.3031 208.563C86.7336 208.563 86.1876 208.79 85.7849 209.193C85.3822 209.595 85.1557 210.142 85.1551 210.711V258.684C85.1557 259.254 85.3822 259.8 85.7849 260.203C86.1876 260.606 86.7336 260.832 87.3031 260.833H173.222C173.792 260.832 174.337 260.606 174.74 260.203C175.143 259.8 175.369 259.254 175.37 258.684V210.711C175.369 210.142 175.143 209.595 174.74 209.193C174.337 208.79 173.792 208.563 173.222 208.563L87.3031 208.563Z" fill="#0F568E"/>
</g>
<g id="box6">
<path id="Vector_20" d="M279.984 496.896H194.065C193.116 496.895 192.206 496.517 191.535 495.846C190.864 495.174 190.486 494.264 190.485 493.314V403.798C190.486 402.849 190.864 401.938 191.535 401.267C192.206 400.595 193.116 400.218 194.065 400.217H279.984C280.933 400.218 281.843 400.595 282.514 401.267C283.185 401.938 283.563 402.849 283.564 403.798V493.314C283.563 494.264 283.185 495.174 282.514 495.846C281.843 496.517 280.933 496.895 279.984 496.896V496.896ZM194.065 401.649C193.495 401.65 192.949 401.876 192.547 402.279C192.144 402.682 191.917 403.228 191.917 403.798V493.314C191.917 493.884 192.144 494.43 192.547 494.833C192.949 495.236 193.495 495.463 194.065 495.463H279.984C280.553 495.463 281.099 495.236 281.502 494.833C281.905 494.43 282.131 493.884 282.132 493.314V403.798C282.131 403.228 281.905 402.682 281.502 402.279C281.099 401.876 280.553 401.65 279.984 401.649H194.065Z" fill="#0F568E"/>
<g id="Vector_21">
<path d="M222.871 431.985C224.684 439.832 232.518 444.723 240.368 442.909C248.218 441.095 253.112 433.263 251.299 425.416C249.485 417.569 241.652 412.678 233.802 414.492C225.951 416.306 221.057 424.138 222.871 431.985Z" fill="#2196F3"/>
<path d="M222.871 431.985C224.684 439.832 232.518 444.723 240.368 442.909C248.218 441.095 253.112 433.263 251.299 425.416C249.485 417.569 241.652 412.678 233.802 414.492C225.951 416.306 221.057 424.138 222.871 431.985Z" fill="url(#paint2_linear)"/>
</g>
<path id="bar10" d="M261.676 478.436C261.996 478.436 262.312 478.374 262.607 478.252C262.903 478.13 263.171 477.951 263.397 477.725C263.623 477.499 263.803 477.231 263.925 476.936C264.048 476.641 264.111 476.324 264.111 476.004C264.111 475.685 264.048 475.368 263.925 475.073C263.803 474.778 263.623 474.51 263.397 474.284C263.171 474.058 262.903 473.879 262.607 473.757C262.312 473.635 261.996 473.572 261.676 473.573H212.372C211.728 473.573 211.11 473.829 210.654 474.285C210.198 474.741 209.942 475.36 209.942 476.004C209.942 476.649 210.198 477.268 210.654 477.724C211.11 478.18 211.728 478.436 212.372 478.436H261.676Z" fill="#00569A"/>
<path id="bar9" d="M261.676 464.111C261.996 464.111 262.312 464.049 262.607 463.927C262.903 463.805 263.171 463.626 263.397 463.4C263.623 463.174 263.803 462.906 263.925 462.61C264.048 462.315 264.111 461.999 264.111 461.679C264.111 461.359 264.048 461.043 263.925 460.748C263.803 460.452 263.623 460.184 263.397 459.958C263.171 459.733 262.903 459.554 262.607 459.432C262.312 459.31 261.996 459.247 261.676 459.248H212.372C211.728 459.248 211.11 459.504 210.654 459.96C210.198 460.416 209.942 461.034 209.942 461.679C209.942 462.324 210.198 462.942 210.654 463.398C211.11 463.854 211.728 464.111 212.372 464.111H261.676Z" fill="#00569A"/>
</g>
<g id="box5">
<path id="Vector_22" d="M174.018 496.896H88.0986C87.1495 496.895 86.2396 496.517 85.5684 495.846C84.8973 495.174 84.5198 494.264 84.5186 493.314V403.798C84.5198 402.849 84.8973 401.938 85.5684 401.267C86.2396 400.595 87.1495 400.218 88.0986 400.217H174.018C174.967 400.218 175.877 400.595 176.548 401.267C177.219 401.938 177.596 402.849 177.597 403.798V493.314C177.596 494.264 177.219 495.174 176.548 495.846C175.877 496.517 174.967 496.895 174.018 496.896V496.896ZM88.0986 401.649C87.5291 401.65 86.9831 401.876 86.5804 402.279C86.1777 402.682 85.9512 403.228 85.9506 403.798V493.314C85.9512 493.884 86.1777 494.43 86.5804 494.833C86.9831 495.236 87.5291 495.463 88.0986 495.463H174.018C174.587 495.463 175.133 495.236 175.536 494.833C175.938 494.43 176.165 493.884 176.166 493.314V403.798C176.165 403.228 175.938 402.682 175.536 402.279C175.133 401.876 174.587 401.65 174.018 401.649H88.0986Z" fill="#0F568E"/>
<path id="bar7" d="M106.406 418.677C106.087 418.676 105.77 418.739 105.475 418.86C105.179 418.982 104.911 419.161 104.685 419.387C104.459 419.613 104.279 419.881 104.157 420.177C104.035 420.472 103.972 420.788 103.972 421.108C103.972 421.428 104.035 421.744 104.157 422.039C104.279 422.335 104.459 422.603 104.685 422.829C104.911 423.055 105.179 423.234 105.475 423.356C105.77 423.478 106.087 423.54 106.406 423.539H155.71C156.354 423.539 156.973 423.283 157.428 422.827C157.884 422.371 158.14 421.753 158.14 421.108C158.14 420.463 157.884 419.845 157.428 419.389C156.973 418.933 156.354 418.677 155.71 418.677H106.406Z" fill="#00569A"/>
<path id="bar8" d="M106.406 433.002C106.087 433.001 105.77 433.064 105.475 433.186C105.179 433.308 104.911 433.487 104.685 433.713C104.459 433.939 104.279 434.207 104.157 434.502C104.035 434.797 103.972 435.114 103.972 435.433C103.972 435.753 104.035 436.07 104.157 436.365C104.279 436.66 104.459 436.928 104.685 437.154C104.911 437.38 105.179 437.559 105.475 437.681C105.77 437.803 106.087 437.865 106.406 437.865H155.71C156.354 437.864 156.971 437.607 157.426 437.151C157.881 436.695 158.136 436.078 158.136 435.433C158.136 434.789 157.881 434.171 157.426 433.716C156.971 433.26 156.354 433.003 155.71 433.002H106.406Z" fill="#00569A"/>
<path id="Vector_23" d="M131.76 476.922C139.814 476.922 146.343 470.391 146.343 462.334C146.343 454.277 139.814 447.745 131.76 447.745C123.706 447.745 117.177 454.277 117.177 462.334C117.177 470.391 123.706 476.922 131.76 476.922Z" fill="url(#paint3_linear)"/>
<g id="box4">
<path id="Vector_24" d="M280.62 377.585H87.3031C86.354 377.584 85.444 377.206 84.7729 376.535C84.1018 375.864 83.7243 374.953 83.7231 374.004V285.204C83.7243 284.254 84.1018 283.344 84.7729 282.672C85.4441 282.001 86.354 281.623 87.3031 281.622H280.62C281.569 281.623 282.479 282.001 283.15 282.672C283.822 283.344 284.199 284.254 284.2 285.204V374.004C284.199 374.953 283.822 375.864 283.15 376.535C282.479 377.206 281.569 377.584 280.62 377.585V377.585ZM87.3031 283.055C86.7336 283.055 86.1876 283.282 85.7849 283.685C85.3822 284.088 85.1557 284.634 85.1551 285.204V374.004C85.1557 374.574 85.3822 375.12 85.7849 375.523C86.1876 375.926 86.7336 376.152 87.3031 376.153H280.62C281.19 376.152 281.736 375.926 282.138 375.523C282.541 375.12 282.768 374.574 282.768 374.004V285.204C282.768 284.634 282.541 284.088 282.138 283.685C281.736 283.282 281.19 283.055 280.62 283.055L87.3031 283.055Z" fill="#0F568E"/>
<g id="Vector_25">
<path d="M101.503 315.385C102.776 323.337 110.257 328.752 118.213 327.479C126.169 326.206 131.587 318.727 130.314 310.774C129.041 302.822 121.56 297.407 113.604 298.68C105.649 299.953 100.231 307.432 101.503 315.385Z" fill="#2196F3"/>
<path d="M101.503 315.385C102.776 323.337 110.257 328.752 118.213 327.479C126.169 326.206 131.587 318.727 130.314 310.774C129.041 302.822 121.56 297.407 113.604 298.68C105.649 299.953 100.231 307.432 101.503 315.385Z" fill="url(#paint4_linear)"/>
</g>
<path id="bar3" d="M149.588 303.354C148.943 303.354 148.325 303.61 147.869 304.066C147.414 304.522 147.157 305.14 147.157 305.785C147.157 306.43 147.414 307.048 147.869 307.504C148.325 307.96 148.943 308.217 149.588 308.217H264.167C264.811 308.215 265.427 307.958 265.882 307.502C266.336 307.047 266.592 306.429 266.592 305.785C266.592 305.141 266.336 304.524 265.882 304.068C265.427 303.612 264.811 303.355 264.167 303.354H149.588Z" fill="#2196F3"/>
<path id="bar4" d="M149.588 317.942C149.269 317.942 148.953 318.004 148.658 318.125C148.362 318.247 148.094 318.426 147.868 318.651C147.642 318.876 147.462 319.144 147.339 319.439C147.217 319.733 147.153 320.049 147.152 320.369C147.152 320.688 147.214 321.004 147.335 321.299C147.457 321.595 147.635 321.863 147.861 322.089C148.086 322.316 148.353 322.495 148.648 322.618C148.943 322.741 149.259 322.804 149.578 322.805H198.892C199.211 322.806 199.528 322.743 199.823 322.621C200.118 322.499 200.387 322.32 200.613 322.094C200.839 321.869 201.018 321.6 201.141 321.305C201.263 321.01 201.326 320.693 201.326 320.374C201.326 320.054 201.263 319.738 201.141 319.442C201.018 319.147 200.839 318.879 200.613 318.653C200.387 318.427 200.118 318.248 199.823 318.126C199.528 318.004 199.211 317.942 198.892 317.942H149.588Z" fill="#2196F3"/>
<path id="bar5" d="M104.723 341.265C102.875 341.265 101.37 342.356 101.37 343.697C101.37 345.037 102.875 346.128 104.723 346.128H262.807C264.656 346.128 266.16 345.037 266.16 343.697C266.16 342.356 264.656 341.265 262.807 341.265H104.723Z" fill="#00569A"/>
<path id="nar6" d="M104.723 355.854C102.875 355.854 101.37 356.945 101.37 358.285C101.37 359.626 102.875 360.717 104.723 360.717H262.807C264.656 360.717 266.16 359.626 266.16 358.285C266.16 356.945 264.656 355.854 262.807 355.854H104.723Z" fill="#00569A"/>
</g>
</g>
<g id="box1">
<path id="Vector_26" d="M280.62 187.773H87.3031C86.354 187.772 85.4441 187.394 84.7729 186.723C84.1018 186.052 83.7243 185.141 83.7231 184.192V136.219C83.7243 135.27 84.1018 134.359 84.7729 133.688C85.4441 133.017 86.354 132.639 87.3031 132.638H280.62C281.569 132.639 282.479 133.017 283.15 133.688C283.822 134.359 284.199 135.27 284.2 136.219V184.192C284.199 185.141 283.822 186.052 283.15 186.723C282.479 187.394 281.569 187.772 280.62 187.773V187.773ZM87.3031 134.07C86.7336 134.071 86.1876 134.297 85.7849 134.7C85.3822 135.103 85.1557 135.649 85.1551 136.219V184.192C85.1557 184.762 85.3822 185.308 85.7849 185.711C86.1876 186.113 86.7336 186.34 87.3031 186.341H280.62C281.19 186.34 281.736 186.113 282.138 185.711C282.541 185.308 282.768 184.762 282.768 184.192V136.219C282.768 135.649 282.541 135.103 282.138 134.7C281.736 134.297 281.19 134.071 280.62 134.07H87.3031Z" fill="#0F568E"/>
<g id="Vector_27">
<path d="M117.341 172.953C125.394 172.953 131.923 166.422 131.923 158.365C131.923 150.308 125.394 143.776 117.341 143.776C109.287 143.776 102.758 150.308 102.758 158.365C102.758 166.422 109.287 172.953 117.341 172.953Z" fill="#2196F3"/>
<path d="M117.341 172.953C125.394 172.953 131.923 166.422 131.923 158.365C131.923 150.308 125.394 143.776 117.341 143.776C109.287 143.776 102.758 150.308 102.758 158.365C102.758 166.422 109.287 172.953 117.341 172.953Z" fill="url(#paint5_linear)"/>
</g>
<path id="bar1" d="M151.02 148.639C150.376 148.641 149.76 148.897 149.305 149.353C148.851 149.809 148.595 150.427 148.595 151.07C148.595 151.714 148.851 152.332 149.305 152.788C149.76 153.244 150.376 153.5 151.02 153.502H265.599C265.918 153.503 266.235 153.441 266.53 153.32C266.826 153.198 267.094 153.02 267.321 152.794C267.547 152.569 267.727 152.301 267.85 152.006C267.973 151.711 268.037 151.395 268.037 151.076C268.038 150.756 267.976 150.44 267.854 150.144C267.732 149.849 267.554 149.58 267.328 149.354C267.103 149.128 266.835 148.948 266.54 148.825C266.245 148.703 265.929 148.639 265.609 148.639C265.606 148.639 265.602 148.639 265.599 148.639H151.02Z" fill="#2196F3"/>
<path id="bar2" d="M151.02 163.228C150.376 163.229 149.76 163.486 149.305 163.942C148.851 164.398 148.595 165.015 148.595 165.659C148.595 166.303 148.851 166.92 149.305 167.376C149.76 167.832 150.376 168.089 151.02 168.09H200.324C200.643 168.091 200.959 168.03 201.255 167.908C201.55 167.787 201.819 167.608 202.045 167.383C202.272 167.158 202.452 166.89 202.575 166.595C202.698 166.3 202.761 165.984 202.762 165.664C202.763 165.345 202.7 165.028 202.579 164.733C202.457 164.437 202.278 164.169 202.053 163.942C201.827 163.716 201.559 163.537 201.264 163.414C200.969 163.291 200.653 163.228 200.334 163.228C200.33 163.228 200.327 163.228 200.324 163.228H151.02Z" fill="#2196F3"/>
</g>
</g>
</g>
<defs>
<linearGradient id="paint0_linear" x1="235.425" y1="260.374" x2="235.425" y2="207.269" gradientUnits="userSpaceOnUse">
<stop stop-color="#2196F3"/>
<stop offset="1" stop-color="#003C6C"/>
</linearGradient>
<linearGradient id="paint1_linear" x1="132.846" y1="217.149" x2="132.846" y2="262.274" gradientUnits="userSpaceOnUse">
<stop stop-color="#2196F3"/>
<stop offset="1" stop-color="#003C6C"/>
</linearGradient>
<linearGradient id="paint2_linear" x1="251.299" y1="425.416" x2="229.583" y2="428.273" gradientUnits="userSpaceOnUse">
<stop stop-color="#2196F3"/>
<stop offset="1" stop-color="#003C6C"/>
</linearGradient>
<linearGradient id="paint3_linear" x1="131.76" y1="447.745" x2="131.76" y2="476.922" gradientUnits="userSpaceOnUse">
<stop stop-color="#2196F3"/>
<stop offset="1" stop-color="#003C6C"/>
</linearGradient>
<linearGradient id="paint4_linear" x1="130.314" y1="310.774" x2="101.503" y2="315.385" gradientUnits="userSpaceOnUse">
<stop stop-color="#2196F3"/>
<stop offset="1" stop-color="#003C6C"/>
</linearGradient>
<linearGradient id="paint5_linear" x1="117.341" y1="143.776" x2="117.341" y2="172.953" gradientUnits="userSpaceOnUse">
<stop stop-color="#2196F3"/>
<stop offset="1" stop-color="#003C6C"/>
</linearGradient>
<clipPath id="clip0">
<rect width="593" height="563" fill="white"/>
</clipPath>
</defs>
</svg>
