<svg width="721" height="360" viewBox="0 0 721 360" fill="none" xmlns="http://www.w3.org/2000/svg">
<g id="Group 1">
<path id="Vector" d="M152.337 -8.15409e-05C132.748 -0.0337275 113.339 3.72948 95.1834 11.0812C94.4523 11.3807 93.7184 11.6817 92.9848 11.9894C65.3927 23.629 41.851 43.1509 25.3099 68.1084C8.76887 93.0659 -0.0355943 122.349 -4.53626e-05 152.287V318.46C0.00193306 320.215 0.70018 321.897 1.94151 323.138C3.18284 324.379 4.86588 325.077 6.62138 325.079L6.75286 325.091C134.375 348.26 258.445 360 375.619 360C377.376 360 379.131 359.997 380.884 359.992C496.064 359.642 608.216 347.901 714.224 325.096L714.379 325.079C716.134 325.077 717.817 324.379 719.058 323.138C720.3 321.898 720.998 320.215 721 318.46V6.61923C720.998 4.8643 720.3 3.1818 719.058 1.94087C717.817 0.699948 716.134 0.00193918 714.379 -3.66512e-05L152.337 -8.15409e-05Z" fill="#1A7DCB"/>
<path id="Path 40" d="M548.695 132.527C547.548 132.546 546.453 133.015 545.648 133.833C544.843 134.651 544.392 135.753 544.392 136.9C544.392 138.048 544.843 139.149 545.648 139.967C546.453 140.785 547.548 141.254 548.695 141.273H658.38C658.955 141.283 659.526 141.18 660.061 140.969C660.596 140.758 661.084 140.444 661.497 140.045C661.911 139.645 662.241 139.168 662.47 138.641C662.699 138.114 662.822 137.547 662.831 136.972C662.841 136.397 662.737 135.826 662.525 135.292C662.314 134.757 661.999 134.27 661.599 133.857C661.199 133.444 660.721 133.114 660.194 132.886C659.666 132.658 659.098 132.536 658.524 132.527C658.476 132.526 658.428 132.526 658.38 132.527H548.695Z" fill="#022948"/>
<path id="arrowright" d="M683.254 131.309C683.174 131.389 683.11 131.484 683.067 131.588C683.024 131.693 683.001 131.805 683.001 131.918C683.001 132.031 683.024 132.143 683.067 132.247C683.11 132.351 683.174 132.446 683.254 132.526L686.949 136.22H677.836C677.608 136.22 677.389 136.311 677.228 136.472C677.066 136.634 676.976 136.853 676.976 137.081C676.976 137.309 677.066 137.528 677.228 137.69C677.389 137.851 677.608 137.942 677.836 137.942H686.949L683.254 141.636C683.174 141.716 683.11 141.811 683.067 141.915C683.024 142.019 683.001 142.131 683.001 142.244C683.001 142.357 683.024 142.469 683.067 142.574C683.11 142.678 683.174 142.773 683.254 142.853C683.334 142.933 683.428 142.996 683.533 143.039C683.637 143.083 683.749 143.105 683.862 143.105C683.975 143.105 684.087 143.083 684.192 143.039C684.296 142.996 684.391 142.933 684.471 142.853L689.636 137.69C689.797 137.528 689.888 137.309 689.888 137.081C689.888 136.853 689.797 136.634 689.636 136.472L684.471 131.309C684.391 131.229 684.296 131.166 684.192 131.123C684.087 131.079 683.975 131.057 683.862 131.057C683.749 131.057 683.637 131.079 683.533 131.123C683.428 131.166 683.334 131.229 683.254 131.309Z" fill="white"/>
<path id="arrowleft" d="M523.775 131.309C523.855 131.389 523.918 131.484 523.962 131.588C524.005 131.693 524.027 131.805 524.027 131.918C524.027 132.031 524.005 132.143 523.962 132.247C523.918 132.351 523.855 132.446 523.775 132.526L520.08 136.22H529.192C529.305 136.22 529.418 136.242 529.522 136.285C529.627 136.328 529.722 136.392 529.802 136.472C529.883 136.552 529.946 136.647 529.99 136.751C530.033 136.856 530.056 136.968 530.056 137.081C530.056 137.194 530.033 137.306 529.99 137.411C529.946 137.515 529.883 137.61 529.802 137.69C529.722 137.77 529.627 137.834 529.522 137.877C529.418 137.92 529.305 137.942 529.192 137.942H520.08L523.775 141.636C523.937 141.797 524.027 142.016 524.027 142.244C524.027 142.472 523.937 142.691 523.775 142.853C523.614 143.014 523.395 143.105 523.166 143.105C522.938 143.105 522.719 143.014 522.558 142.853L517.393 137.69C517.231 137.528 517.141 137.309 517.141 137.081C517.141 136.853 517.231 136.634 517.393 136.472L522.558 131.309C522.638 131.229 522.733 131.166 522.837 131.123C522.941 131.079 523.053 131.057 523.166 131.057C523.279 131.057 523.391 131.079 523.496 131.123C523.6 131.166 523.695 131.229 523.775 131.309V131.309Z" fill="white"/>
<g id="dots2" opacity="0.4">
<path id="Vector_2" opacity="0.4" d="M553.125 41.76C555.721 41.76 557.826 39.656 557.826 37.0604C557.826 34.4649 555.721 32.3608 553.125 32.3608C550.528 32.3608 548.423 34.4649 548.423 37.0604C548.423 39.656 550.528 41.76 553.125 41.76Z" fill="white"/>
<path id="Vector_3" opacity="0.4" d="M572.713 41.76C575.309 41.76 577.414 39.656 577.414 37.0604C577.414 34.4649 575.309 32.3608 572.713 32.3608C570.116 32.3608 568.012 34.4649 568.012 37.0604C568.012 39.656 570.116 41.76 572.713 41.76Z" fill="white"/>
<path id="Vector_4" opacity="0.4" d="M592.301 41.76C594.897 41.76 597.002 39.656 597.002 37.0604C597.002 34.4649 594.897 32.3608 592.301 32.3608C589.704 32.3608 587.6 34.4649 587.6 37.0604C587.6 39.656 589.704 41.76 592.301 41.76Z" fill="white"/>
<path id="Vector_5" opacity="0.4" d="M611.889 41.76C614.485 41.76 616.59 39.656 616.59 37.0604C616.59 34.4649 614.485 32.3608 611.889 32.3608C609.292 32.3608 607.188 34.4649 607.188 37.0604C607.188 39.656 609.292 41.76 611.889 41.76Z" fill="white"/>
<path id="Vector_6" opacity="0.4" d="M631.477 41.76C634.073 41.76 636.178 39.656 636.178 37.0604C636.178 34.4649 634.073 32.3608 631.477 32.3608C628.881 32.3608 626.776 34.4649 626.776 37.0604C626.776 39.656 628.881 41.76 631.477 41.76Z" fill="white"/>
<path id="Vector_7" opacity="0.4" d="M651.065 41.76C653.661 41.76 655.766 39.656 655.766 37.0604C655.766 34.4649 653.661 32.3608 651.065 32.3608C648.469 32.3608 646.364 34.4649 646.364 37.0604C646.364 39.656 648.469 41.76 651.065 41.76Z" fill="white"/>
<path id="Vector_8" opacity="0.4" d="M670.653 41.76C673.25 41.76 675.354 39.656 675.354 37.0604C675.354 34.4649 673.25 32.3608 670.653 32.3608C668.057 32.3608 665.952 34.4649 665.952 37.0604C665.952 39.656 668.057 41.76 670.653 41.76Z" fill="white"/>
<path id="Vector_9" opacity="0.4" d="M553.125 56.6421C555.721 56.6421 557.826 54.538 557.826 51.9425C557.826 49.347 555.721 47.2429 553.125 47.2429C550.528 47.2429 548.423 49.347 548.423 51.9425C548.423 54.538 550.528 56.6421 553.125 56.6421Z" fill="white"/>
<path id="Vector_10" opacity="0.4" d="M572.713 56.6421C575.309 56.6421 577.414 54.538 577.414 51.9425C577.414 49.347 575.309 47.2429 572.713 47.2429C570.116 47.2429 568.012 49.347 568.012 51.9425C568.012 54.538 570.116 56.6421 572.713 56.6421Z" fill="white"/>
<path id="Vector_11" opacity="0.4" d="M592.301 56.6421C594.897 56.6421 597.002 54.538 597.002 51.9425C597.002 49.347 594.897 47.2429 592.301 47.2429C589.704 47.2429 587.6 49.347 587.6 51.9425C587.6 54.538 589.704 56.6421 592.301 56.6421Z" fill="white"/>
<path id="Vector_12" opacity="0.4" d="M611.889 56.6421C614.485 56.6421 616.59 54.538 616.59 51.9425C616.59 49.347 614.485 47.2429 611.889 47.2429C609.292 47.2429 607.188 49.347 607.188 51.9425C607.188 54.538 609.292 56.6421 611.889 56.6421Z" fill="white"/>
<path id="Vector_13" opacity="0.4" d="M631.477 56.6421C634.073 56.6421 636.178 54.538 636.178 51.9425C636.178 49.347 634.073 47.2429 631.477 47.2429C628.881 47.2429 626.776 49.347 626.776 51.9425C626.776 54.538 628.881 56.6421 631.477 56.6421Z" fill="white"/>
<path id="Vector_14" opacity="0.4" d="M651.065 56.6421C653.661 56.6421 655.766 54.538 655.766 51.9425C655.766 49.347 653.661 47.2429 651.065 47.2429C648.469 47.2429 646.364 49.347 646.364 51.9425C646.364 54.538 648.469 56.6421 651.065 56.6421Z" fill="white"/>
<path id="Vector_15" opacity="0.4" d="M670.653 56.6421C673.25 56.6421 675.354 54.538 675.354 51.9425C675.354 49.347 673.25 47.2429 670.653 47.2429C668.057 47.2429 665.952 49.347 665.952 51.9425C665.952 54.538 668.057 56.6421 670.653 56.6421Z" fill="white"/>
<path id="Vector_16" opacity="0.4" d="M553.125 71.5242C555.721 71.5242 557.826 69.4201 557.826 66.8246C557.826 64.2291 555.721 62.125 553.125 62.125C550.528 62.125 548.423 64.2291 548.423 66.8246C548.423 69.4201 550.528 71.5242 553.125 71.5242Z" fill="white"/>
<path id="Vector_17" opacity="0.4" d="M572.713 71.5242C575.309 71.5242 577.414 69.4201 577.414 66.8246C577.414 64.2291 575.309 62.125 572.713 62.125C570.116 62.125 568.012 64.2291 568.012 66.8246C568.012 69.4201 570.116 71.5242 572.713 71.5242Z" fill="white"/>
<path id="Vector_18" opacity="0.4" d="M592.301 71.5242C594.897 71.5242 597.002 69.4201 597.002 66.8246C597.002 64.2291 594.897 62.125 592.301 62.125C589.704 62.125 587.6 64.2291 587.6 66.8246C587.6 69.4201 589.704 71.5242 592.301 71.5242Z" fill="white"/>
<path id="Vector_19" opacity="0.4" d="M611.889 71.5242C614.485 71.5242 616.59 69.4201 616.59 66.8246C616.59 64.2291 614.485 62.125 611.889 62.125C609.292 62.125 607.188 64.2291 607.188 66.8246C607.188 69.4201 609.292 71.5242 611.889 71.5242Z" fill="white"/>
<path id="Vector_20" opacity="0.4" d="M631.477 71.5242C634.073 71.5242 636.178 69.4201 636.178 66.8246C636.178 64.2291 634.073 62.125 631.477 62.125C628.881 62.125 626.776 64.2291 626.776 66.8246C626.776 69.4201 628.881 71.5242 631.477 71.5242Z" fill="white"/>
<path id="Vector_21" opacity="0.4" d="M651.065 71.5242C653.661 71.5242 655.766 69.4201 655.766 66.8246C655.766 64.2291 653.661 62.125 651.065 62.125C648.469 62.125 646.364 64.2291 646.364 66.8246C646.364 69.4201 648.469 71.5242 651.065 71.5242Z" fill="white"/>
<path id="Vector_22" opacity="0.4" d="M670.653 71.5242C673.25 71.5242 675.354 69.4201 675.354 66.8246C675.354 64.2291 673.25 62.125 670.653 62.125C668.057 62.125 665.952 64.2291 665.952 66.8246C665.952 69.4201 668.057 71.5242 670.653 71.5242Z" fill="white"/>
<path id="Vector_23" opacity="0.4" d="M553.125 86.4063C555.721 86.4063 557.826 84.3022 557.826 81.7067C557.826 79.1112 555.721 77.0071 553.125 77.0071C550.528 77.0071 548.423 79.1112 548.423 81.7067C548.423 84.3022 550.528 86.4063 553.125 86.4063Z" fill="white"/>
<path id="Vector_24" opacity="0.4" d="M572.713 86.4063C575.309 86.4063 577.414 84.3022 577.414 81.7067C577.414 79.1112 575.309 77.0071 572.713 77.0071C570.116 77.0071 568.012 79.1112 568.012 81.7067C568.012 84.3022 570.116 86.4063 572.713 86.4063Z" fill="white"/>
<path id="Vector_25" opacity="0.4" d="M553.125 101.288C555.721 101.288 557.826 99.1843 557.826 96.5888C557.826 93.9932 555.721 91.8892 553.125 91.8892C550.528 91.8892 548.423 93.9932 548.423 96.5888C548.423 99.1843 550.528 101.288 553.125 101.288Z" fill="white"/>
<path id="Vector_26" opacity="0.4" d="M572.713 101.288C575.309 101.288 577.414 99.1843 577.414 96.5888C577.414 93.9932 575.309 91.8892 572.713 91.8892C570.116 91.8892 568.012 93.9932 568.012 96.5888C568.012 99.1843 570.116 101.288 572.713 101.288Z" fill="white"/>
<path id="Vector_27" opacity="0.4" d="M592.301 101.288C594.897 101.288 597.002 99.1843 597.002 96.5888C597.002 93.9932 594.897 91.8892 592.301 91.8892C589.704 91.8892 587.6 93.9932 587.6 96.5888C587.6 99.1843 589.704 101.288 592.301 101.288Z" fill="white"/>
<path id="Vector_28" opacity="0.4" d="M592.301 86.4063C594.897 86.4063 597.002 84.3022 597.002 81.7067C597.002 79.1112 594.897 77.0071 592.301 77.0071C589.704 77.0071 587.6 79.1112 587.6 81.7067C587.6 84.3022 589.704 86.4063 592.301 86.4063Z" fill="white"/>
<path id="Vector_29" opacity="0.4" d="M611.889 86.4063C614.485 86.4063 616.59 84.3022 616.59 81.7067C616.59 79.1112 614.485 77.0071 611.889 77.0071C609.292 77.0071 607.188 79.1112 607.188 81.7067C607.188 84.3022 609.292 86.4063 611.889 86.4063Z" fill="white"/>
<path id="Vector_30" opacity="0.4" d="M631.477 86.4063C634.073 86.4063 636.178 84.3022 636.178 81.7067C636.178 79.1112 634.073 77.0071 631.477 77.0071C628.881 77.0071 626.776 79.1112 626.776 81.7067C626.776 84.3022 628.881 86.4063 631.477 86.4063Z" fill="white"/>
<path id="Vector_31" opacity="0.4" d="M651.065 86.4063C653.661 86.4063 655.766 84.3022 655.766 81.7067C655.766 79.1112 653.661 77.0071 651.065 77.0071C648.469 77.0071 646.364 79.1112 646.364 81.7067C646.364 84.3022 648.469 86.4063 651.065 86.4063Z" fill="white"/>
<path id="Vector_32" opacity="0.4" d="M670.653 86.4063C673.25 86.4063 675.354 84.3022 675.354 81.7067C675.354 79.1112 673.25 77.0071 670.653 77.0071C668.057 77.0071 665.952 79.1112 665.952 81.7067C665.952 84.3022 668.057 86.4063 670.653 86.4063Z" fill="white"/>
</g>
<g id="dots1">
<path id="Vector_33" opacity="0.4" d="M39.7461 279.325C41.7875 279.325 43.4423 277.671 43.4423 275.63C43.4423 273.59 41.7875 271.935 39.7461 271.935C37.7048 271.935 36.05 273.59 36.05 275.63C36.05 277.671 37.7048 279.325 39.7461 279.325Z" fill="white"/>
<path id="Vector_34" opacity="0.4" d="M39.7461 263.929C41.7875 263.929 43.4423 262.275 43.4423 260.235C43.4423 258.194 41.7875 256.54 39.7461 256.54C37.7048 256.54 36.05 258.194 36.05 260.235C36.05 262.275 37.7048 263.929 39.7461 263.929Z" fill="white"/>
<path id="Vector_35" opacity="0.4" d="M39.7461 248.534C41.7875 248.534 43.4423 246.88 43.4423 244.839C43.4423 242.798 41.7875 241.144 39.7461 241.144C37.7048 241.144 36.05 242.798 36.05 244.839C36.05 246.88 37.7048 248.534 39.7461 248.534Z" fill="white"/>
<path id="Vector_36" opacity="0.4" d="M39.7461 233.138C41.7875 233.138 43.4423 231.484 43.4423 229.443C43.4423 227.403 41.7875 225.748 39.7461 225.748C37.7048 225.748 36.05 227.403 36.05 229.443C36.05 231.484 37.7048 233.138 39.7461 233.138Z" fill="white"/>
<path id="Vector_37" opacity="0.4" d="M39.7461 217.743C41.7875 217.743 43.4423 216.088 43.4423 214.048C43.4423 212.007 41.7875 210.353 39.7461 210.353C37.7048 210.353 36.05 212.007 36.05 214.048C36.05 216.088 37.7048 217.743 39.7461 217.743Z" fill="white"/>
<path id="Vector_38" opacity="0.4" d="M39.7461 202.347C41.7875 202.347 43.4423 200.693 43.4423 198.652C43.4423 196.611 41.7875 194.957 39.7461 194.957C37.7048 194.957 36.05 196.611 36.05 198.652C36.05 200.693 37.7048 202.347 39.7461 202.347Z" fill="white"/>
<path id="Vector_39" opacity="0.4" d="M39.7461 186.951C41.7875 186.951 43.4423 185.297 43.4423 183.256C43.4423 181.216 41.7875 179.561 39.7461 179.561C37.7048 179.561 36.05 181.216 36.05 183.256C36.05 185.297 37.7048 186.951 39.7461 186.951Z" fill="white"/>
<path id="Vector_40" opacity="0.4" d="M51.4507 279.325C53.492 279.325 55.1468 277.671 55.1468 275.63C55.1468 273.59 53.492 271.935 51.4507 271.935C49.4093 271.935 47.7545 273.59 47.7545 275.63C47.7545 277.671 49.4093 279.325 51.4507 279.325Z" fill="white"/>
<path id="Vector_41" opacity="0.4" d="M51.4507 263.929C53.492 263.929 55.1468 262.275 55.1468 260.235C55.1468 258.194 53.492 256.54 51.4507 256.54C49.4093 256.54 47.7545 258.194 47.7545 260.235C47.7545 262.275 49.4093 263.929 51.4507 263.929Z" fill="white"/>
<path id="Vector_42" opacity="0.4" d="M51.4507 248.534C53.492 248.534 55.1468 246.88 55.1468 244.839C55.1468 242.798 53.492 241.144 51.4507 241.144C49.4093 241.144 47.7545 242.798 47.7545 244.839C47.7545 246.88 49.4093 248.534 51.4507 248.534Z" fill="white"/>
<path id="Vector_43" opacity="0.4" d="M51.4507 233.138C53.492 233.138 55.1468 231.484 55.1468 229.443C55.1468 227.403 53.492 225.748 51.4507 225.748C49.4093 225.748 47.7545 227.403 47.7545 229.443C47.7545 231.484 49.4093 233.138 51.4507 233.138Z" fill="white"/>
<path id="Vector_44" opacity="0.4" d="M51.4507 217.743C53.492 217.743 55.1468 216.088 55.1468 214.048C55.1468 212.007 53.492 210.353 51.4507 210.353C49.4093 210.353 47.7545 212.007 47.7545 214.048C47.7545 216.088 49.4093 217.743 51.4507 217.743Z" fill="white"/>
<path id="Vector_45" opacity="0.4" d="M51.4507 202.347C53.492 202.347 55.1468 200.693 55.1468 198.652C55.1468 196.611 53.492 194.957 51.4507 194.957C49.4093 194.957 47.7545 196.611 47.7545 198.652C47.7545 200.693 49.4093 202.347 51.4507 202.347Z" fill="white"/>
<path id="Vector_46" opacity="0.4" d="M51.4507 186.951C53.492 186.951 55.1468 185.297 55.1468 183.256C55.1468 181.216 53.492 179.561 51.4507 179.561C49.4093 179.561 47.7545 181.216 47.7545 183.256C47.7545 185.297 49.4093 186.951 51.4507 186.951Z" fill="white"/>
<path id="Vector_47" opacity="0.4" d="M63.1552 279.325C65.1965 279.325 66.8513 277.671 66.8513 275.63C66.8513 273.59 65.1965 271.935 63.1552 271.935C61.1138 271.935 59.459 273.59 59.459 275.63C59.459 277.671 61.1138 279.325 63.1552 279.325Z" fill="white"/>
<path id="Vector_48" opacity="0.4" d="M63.1552 263.929C65.1965 263.929 66.8513 262.275 66.8513 260.235C66.8513 258.194 65.1965 256.54 63.1552 256.54C61.1138 256.54 59.459 258.194 59.459 260.235C59.459 262.275 61.1138 263.929 63.1552 263.929Z" fill="white"/>
<path id="Vector_49" opacity="0.4" d="M63.1552 248.534C65.1965 248.534 66.8513 246.88 66.8513 244.839C66.8513 242.798 65.1965 241.144 63.1552 241.144C61.1138 241.144 59.459 242.798 59.459 244.839C59.459 246.88 61.1138 248.534 63.1552 248.534Z" fill="white"/>
<path id="Vector_50" opacity="0.4" d="M63.1552 233.138C65.1965 233.138 66.8513 231.484 66.8513 229.443C66.8513 227.403 65.1965 225.748 63.1552 225.748C61.1138 225.748 59.459 227.403 59.459 229.443C59.459 231.484 61.1138 233.138 63.1552 233.138Z" fill="white"/>
<path id="Vector_51" opacity="0.4" d="M63.1552 217.743C65.1965 217.743 66.8513 216.088 66.8513 214.048C66.8513 212.007 65.1965 210.353 63.1552 210.353C61.1138 210.353 59.459 212.007 59.459 214.048C59.459 216.088 61.1138 217.743 63.1552 217.743Z" fill="white"/>
<path id="Vector_52" opacity="0.4" d="M63.1552 202.347C65.1965 202.347 66.8513 200.693 66.8513 198.652C66.8513 196.611 65.1965 194.957 63.1552 194.957C61.1138 194.957 59.459 196.611 59.459 198.652C59.459 200.693 61.1138 202.347 63.1552 202.347Z" fill="white"/>
<path id="Vector_53" opacity="0.4" d="M63.1552 186.951C65.1965 186.951 66.8513 185.297 66.8513 183.256C66.8513 181.216 65.1965 179.561 63.1552 179.561C61.1138 179.561 59.459 181.216 59.459 183.256C59.459 185.297 61.1138 186.951 63.1552 186.951Z" fill="white"/>
<path id="Vector_54" opacity="0.4" d="M74.8597 279.325C76.901 279.325 78.5559 277.671 78.5559 275.63C78.5559 273.59 76.901 271.935 74.8597 271.935C72.8184 271.935 71.1635 273.59 71.1635 275.63C71.1635 277.671 72.8184 279.325 74.8597 279.325Z" fill="white"/>
<path id="Vector_55" opacity="0.4" d="M74.8597 263.929C76.901 263.929 78.5559 262.275 78.5559 260.235C78.5559 258.194 76.901 256.54 74.8597 256.54C72.8184 256.54 71.1635 258.194 71.1635 260.235C71.1635 262.275 72.8184 263.929 74.8597 263.929Z" fill="white"/>
<path id="Vector_56" opacity="0.4" d="M86.5642 279.325C88.6055 279.325 90.2604 277.671 90.2604 275.63C90.2604 273.59 88.6055 271.935 86.5642 271.935C84.5229 271.935 82.868 273.59 82.868 275.63C82.868 277.671 84.5229 279.325 86.5642 279.325Z" fill="white"/>
<path id="Vector_57" opacity="0.4" d="M86.5642 263.929C88.6055 263.929 90.2604 262.275 90.2604 260.235C90.2604 258.194 88.6055 256.54 86.5642 256.54C84.5229 256.54 82.868 258.194 82.868 260.235C82.868 262.275 84.5229 263.929 86.5642 263.929Z" fill="white"/>
<path id="Vector_58" opacity="0.4" d="M86.5642 248.534C88.6055 248.534 90.2604 246.88 90.2604 244.839C90.2604 242.798 88.6055 241.144 86.5642 241.144C84.5229 241.144 82.868 242.798 82.868 244.839C82.868 246.88 84.5229 248.534 86.5642 248.534Z" fill="white"/>
<path id="Vector_59" opacity="0.4" d="M74.8597 248.534C76.901 248.534 78.5559 246.88 78.5559 244.839C78.5559 242.798 76.901 241.144 74.8597 241.144C72.8184 241.144 71.1635 242.798 71.1635 244.839C71.1635 246.88 72.8184 248.534 74.8597 248.534Z" fill="white"/>
<path id="Vector_60" opacity="0.4" d="M74.8597 233.138C76.901 233.138 78.5559 231.484 78.5559 229.443C78.5559 227.403 76.901 225.748 74.8597 225.748C72.8184 225.748 71.1635 227.403 71.1635 229.443C71.1635 231.484 72.8184 233.138 74.8597 233.138Z" fill="white"/>
<path id="Vector_61" opacity="0.4" d="M74.8597 217.743C76.901 217.743 78.5559 216.088 78.5559 214.048C78.5559 212.007 76.901 210.353 74.8597 210.353C72.8184 210.353 71.1635 212.007 71.1635 214.048C71.1635 216.088 72.8184 217.743 74.8597 217.743Z" fill="white"/>
<path id="Vector_62" opacity="0.4" d="M74.8597 202.347C76.901 202.347 78.5559 200.693 78.5559 198.652C78.5559 196.611 76.901 194.957 74.8597 194.957C72.8184 194.957 71.1635 196.611 71.1635 198.652C71.1635 200.693 72.8184 202.347 74.8597 202.347Z" fill="white"/>
<path id="Vector_63" opacity="0.4" d="M74.8597 186.951C76.901 186.951 78.5559 185.297 78.5559 183.256C78.5559 181.216 76.901 179.561 74.8597 179.561C72.8184 179.561 71.1635 181.216 71.1635 183.256C71.1635 185.297 72.8184 186.951 74.8597 186.951Z" fill="white"/>
</g>
<g id="crosscontainer">
<g id="Vector_64" filter="url(#filter0_d)">
<path d="M481.659 274.478C476.527 274.478 471.509 272.956 467.242 270.106C462.974 267.255 459.648 263.204 457.684 258.463C455.72 253.723 455.206 248.507 456.207 243.475C457.209 238.443 459.68 233.82 463.309 230.192C466.939 226.564 471.563 224.093 476.597 223.092C481.63 222.091 486.848 222.605 491.59 224.569C496.332 226.532 500.385 229.857 503.236 234.123C506.088 238.389 507.61 243.405 507.61 248.536C507.602 255.414 504.865 262.008 500 266.871C495.135 271.734 488.539 274.47 481.659 274.478V274.478ZM481.659 224.065C476.818 224.065 472.085 225.5 468.059 228.189C464.034 230.878 460.896 234.7 459.043 239.171C457.191 243.643 456.706 248.563 457.651 253.31C458.595 258.057 460.926 262.417 464.35 265.84C467.773 269.262 472.135 271.592 476.884 272.537C481.632 273.481 486.554 272.996 491.027 271.144C495.5 269.292 499.323 266.155 502.013 262.131C504.703 258.107 506.138 253.376 506.138 248.536C506.131 242.048 503.55 235.828 498.96 231.24C494.371 226.653 488.149 224.072 481.659 224.065V224.065Z" fill="#3F3D56"/>
</g>
<g id="cross" filter="url(#filter1_d)">
<path d="M491.609 246.049H484.147V238.59C484.147 237.931 483.885 237.298 483.418 236.832C482.952 236.365 482.319 236.104 481.659 236.104C481 236.104 480.367 236.365 479.901 236.832C479.434 237.298 479.172 237.931 479.172 238.59V246.049H471.71C471.051 246.049 470.418 246.311 469.952 246.778C469.485 247.244 469.223 247.876 469.223 248.536C469.223 249.195 469.485 249.828 469.952 250.294C470.418 250.76 471.051 251.022 471.71 251.022H479.172V258.482C479.172 259.141 479.434 259.774 479.901 260.24C480.367 260.706 481 260.968 481.659 260.968C482.319 260.968 482.952 260.706 483.418 260.24C483.885 259.774 484.147 259.141 484.147 258.482V251.022H491.609C492.268 251.022 492.901 250.76 493.367 250.294C493.834 249.828 494.096 249.195 494.096 248.536C494.096 247.876 493.834 247.244 493.367 246.778C492.901 246.311 492.268 246.049 491.609 246.049V246.049Z" fill="white"/>
</g>
<path id="Vector_65" d="M460.74 215.768L436.079 180.975L444.062 182.638C444.204 182.667 444.351 182.668 444.493 182.641C444.636 182.614 444.772 182.56 444.893 182.48C445.014 182.401 445.119 182.298 445.2 182.178C445.282 182.058 445.339 181.924 445.369 181.782C445.398 181.64 445.4 181.493 445.373 181.351C445.346 181.209 445.291 181.073 445.211 180.952C445.132 180.83 445.029 180.726 444.909 180.644C444.79 180.563 444.655 180.505 444.513 180.476L432.616 178L431.01 190.04C430.99 190.184 430.999 190.33 431.037 190.471C431.074 190.611 431.138 190.743 431.226 190.859C431.314 190.974 431.424 191.071 431.55 191.144C431.676 191.217 431.815 191.264 431.959 191.284C432.103 191.303 432.249 191.293 432.389 191.256C432.53 191.218 432.661 191.154 432.777 191.065C432.892 190.977 432.989 190.866 433.061 190.74C433.134 190.615 433.181 190.476 433.2 190.332L434.276 182.246L458.94 217.043C459.023 217.162 459.13 217.262 459.252 217.339C459.375 217.416 459.512 217.469 459.655 217.493C459.797 217.517 459.944 217.513 460.085 217.481C460.226 217.449 460.36 217.389 460.478 217.306C460.596 217.222 460.697 217.116 460.774 216.993C460.851 216.87 460.903 216.734 460.928 216.591C460.952 216.448 460.948 216.302 460.916 216.161C460.884 216.02 460.824 215.886 460.74 215.768V215.768Z" fill="white"/>
</g>
<g id="profile4">
<path id="Vector_66" d="M568.246 161H646.153C647.013 161.001 647.838 161.343 648.447 161.952C649.055 162.56 649.398 163.385 649.399 164.245V245.355C649.398 246.215 649.055 247.04 648.447 247.648C647.838 248.257 647.013 248.599 646.153 248.6H568.246C567.385 248.599 566.56 248.257 565.952 247.648C565.343 247.04 565.001 246.215 565 245.355V164.245C565.001 163.385 565.343 162.56 565.952 161.952C566.56 161.343 567.385 161.001 568.246 161V161ZM646.153 247.302C646.669 247.301 647.164 247.096 647.529 246.731C647.894 246.366 648.1 245.871 648.1 245.355V164.245C648.1 163.729 647.894 163.234 647.529 162.869C647.164 162.504 646.669 162.299 646.153 162.298H568.246C567.73 162.299 567.235 162.504 566.87 162.869C566.504 163.234 566.299 163.729 566.298 164.245V245.355C566.299 245.871 566.504 246.366 566.87 246.731C567.235 247.096 567.73 247.301 568.246 247.302H646.153Z" fill="#3F3D56"/>
<g id="Vector_67" filter="url(#filter2_d)">
<path d="M629.552 231.874C630.137 231.874 630.697 231.641 631.111 231.228C631.524 230.815 631.756 230.255 631.756 229.67C631.756 229.086 631.524 228.526 631.111 228.113C630.697 227.7 630.137 227.467 629.552 227.467H584.846C584.262 227.467 583.701 227.7 583.288 228.113C582.875 228.526 582.643 229.086 582.643 229.67C582.643 230.255 582.875 230.815 583.288 231.228C583.701 231.641 584.262 231.874 584.846 231.874H629.552Z" fill="white"/>
</g>
<g id="Vector_68" filter="url(#filter3_d)">
<path d="M629.552 218.893C629.842 218.894 630.129 218.837 630.397 218.727C630.665 218.616 630.908 218.454 631.113 218.25C631.318 218.045 631.481 217.802 631.592 217.534C631.703 217.267 631.76 216.98 631.76 216.69C631.76 216.401 631.703 216.114 631.592 215.846C631.481 215.579 631.318 215.336 631.113 215.131C630.908 214.927 630.665 214.764 630.397 214.654C630.129 214.543 629.842 214.487 629.552 214.487H584.846C584.557 214.487 584.27 214.543 584.002 214.654C583.734 214.764 583.491 214.927 583.285 215.131C583.08 215.336 582.918 215.579 582.807 215.846C582.696 216.114 582.639 216.401 582.639 216.69C582.639 216.98 582.696 217.267 582.807 217.534C582.918 217.802 583.08 218.045 583.285 218.25C583.491 218.454 583.734 218.616 584.002 218.727C584.27 218.837 584.557 218.894 584.846 218.893H629.552Z" fill="white"/>
</g>
<path id="Vector_69" d="M607.199 177.726C609.943 177.726 612.625 178.54 614.906 180.063C617.187 181.587 618.965 183.753 620.015 186.287C621.065 188.821 621.34 191.609 620.805 194.299C620.269 196.989 618.948 199.46 617.008 201.4C615.068 203.339 612.596 204.66 609.905 205.195C607.215 205.73 604.425 205.455 601.891 204.406C599.356 203.356 597.189 201.579 595.665 199.298C594.141 197.018 593.327 194.336 593.327 191.594C593.331 187.917 594.794 184.392 597.395 181.793C599.995 179.193 603.521 177.73 607.199 177.726Z" fill="white"/>
</g>
<g id="profile2">
<g id="Vector_70" filter="url(#filter4_d)">
<path d="M383.087 22H137.548C136.342 22.0012 135.186 22.4807 134.334 23.3331C133.481 24.1856 133.001 25.3414 133 26.547V236.439C133.001 237.644 133.481 238.8 134.334 239.653C135.186 240.505 136.342 240.985 137.548 240.986H383.087C384.293 240.985 385.449 240.505 386.302 239.653C387.155 238.8 387.635 237.644 387.636 236.439V26.547C387.635 25.3414 387.155 24.1856 386.302 23.3331C385.449 22.4807 384.293 22.0012 383.087 22ZM385.813 236.439C385.813 237.162 385.526 237.856 385.015 238.368C384.504 238.88 383.811 239.17 383.087 239.172H137.548C136.824 239.171 136.131 238.882 135.619 238.37C135.108 237.857 134.822 237.163 134.823 236.439V26.547C134.822 25.8232 135.108 25.1286 135.619 24.616C136.131 24.1034 136.824 23.8148 137.548 23.8137H383.087C383.811 23.8163 384.504 24.1053 385.015 24.6176C385.526 25.1299 385.813 25.8236 385.813 26.547V236.439Z" fill="black"/>
</g>
<g id="Vector_71" filter="url(#filter5_d)">
<path d="M194.225 203.665C194.225 203.989 194.216 204.312 194.199 204.627C193.952 209.364 191.895 213.825 188.454 217.091C185.012 220.356 180.448 222.176 175.703 222.176C170.958 222.176 166.395 220.356 162.953 217.091C159.511 213.825 157.455 209.364 157.207 204.627C157.19 204.312 157.182 203.989 157.182 203.665C157.18 201.233 157.658 198.824 158.588 196.576C159.518 194.328 160.882 192.286 162.602 190.565C164.322 188.844 166.365 187.48 168.613 186.548C170.861 185.617 173.27 185.138 175.703 185.138C178.137 185.138 180.546 185.617 182.794 186.548C185.042 187.48 187.084 188.844 188.804 190.565C190.524 192.286 191.888 194.328 192.818 196.576C193.749 198.824 194.227 201.233 194.225 203.665Z" fill="white"/>
</g>
<g id="Vector_72" filter="url(#filter6_d)">
<path d="M364.008 191.318H218.475C217.657 191.32 216.873 191.645 216.295 192.224C215.717 192.803 215.392 193.587 215.392 194.405C215.392 195.223 215.717 196.007 216.295 196.586C216.873 197.165 217.657 197.49 218.475 197.492H364.008C364.826 197.49 365.61 197.165 366.188 196.586C366.766 196.007 367.091 195.223 367.091 194.405C367.091 193.587 366.766 192.803 366.188 192.224C365.61 191.645 364.826 191.32 364.008 191.318V191.318Z" fill="white"/>
</g>
<g id="Vector_73" filter="url(#filter7_d)">
<path d="M281.097 209.838H218.475C217.657 209.838 216.873 210.163 216.295 210.741C215.716 211.319 215.391 212.103 215.391 212.921C215.391 213.738 215.716 214.522 216.295 215.1C216.873 215.678 217.657 216.003 218.475 216.003H281.097C281.914 216.003 282.699 215.678 283.277 215.1C283.855 214.522 284.18 213.738 284.18 212.921C284.18 212.103 283.855 211.319 283.277 210.741C282.699 210.163 281.914 209.838 281.097 209.838Z" fill="white"/>
</g>
</g>
<g id="profile3">
<path id="Vector_74" d="M424.285 171.793H178.748C177.08 171.791 175.481 171.128 174.302 169.949C173.123 168.77 172.46 167.172 172.458 165.505V57.7857C172.46 56.1187 173.123 54.5205 174.302 53.3417C175.481 52.1629 177.08 51.4998 178.748 51.4979H424.285C425.953 51.4998 427.551 52.1629 428.73 53.3417C429.91 54.5205 430.573 56.1187 430.575 57.7857V165.505C430.573 167.172 429.91 168.77 428.731 169.949C427.551 171.128 425.953 171.791 424.285 171.793V171.793ZM178.748 53.7043C177.665 53.7056 176.628 54.136 175.862 54.9011C175.097 55.6663 174.666 56.7036 174.665 57.7857V165.505C174.666 166.587 175.097 167.624 175.862 168.389C176.628 169.154 177.665 169.585 178.748 169.586H424.285C425.368 169.585 426.405 169.154 427.171 168.389C427.936 167.624 428.366 166.587 428.368 165.505V57.7857C428.366 56.7036 427.936 55.6663 427.171 54.9011C426.405 54.136 425.368 53.7056 424.285 53.7043H178.748Z" fill="white"/>
<g id="Vector_75" filter="url(#filter8_d)">
<path d="M228.751 90.7865C227.933 90.7865 227.147 91.1116 226.569 91.6903C225.99 92.2691 225.664 93.054 225.664 93.8725C225.664 94.6909 225.99 95.4758 226.569 96.0546C227.147 96.6333 227.933 96.9584 228.751 96.9584H374.281C375.1 96.9584 375.885 96.6333 376.464 96.0546C377.043 95.4758 377.368 94.6909 377.368 93.8725C377.368 93.054 377.043 92.2691 376.464 91.6903C375.885 91.1116 375.1 90.7865 374.281 90.7865H228.751Z" fill="white"/>
</g>
<g id="Vector_76" filter="url(#filter9_d)">
<path d="M228.751 108.668C227.933 108.668 227.147 108.993 226.569 109.572C225.99 110.15 225.664 110.935 225.664 111.754C225.664 112.572 225.99 113.357 226.569 113.936C227.147 114.515 227.933 114.84 228.751 114.84H374.281C375.099 114.838 375.883 114.513 376.461 113.934C377.039 113.356 377.363 112.571 377.363 111.754C377.363 110.936 377.039 110.152 376.461 109.573C375.883 108.995 375.099 108.669 374.281 108.668H228.751Z" fill="white"/>
</g>
<g id="Vector_77" filter="url(#filter10_d)">
<path d="M228.751 126.332C227.933 126.332 227.147 126.657 226.569 127.236C225.99 127.815 225.664 128.6 225.664 129.418C225.664 130.237 225.99 131.021 226.569 131.6C227.147 132.179 227.933 132.504 228.751 132.504H291.373C292.191 132.503 292.975 132.177 293.553 131.599C294.131 131.02 294.455 130.236 294.455 129.418C294.455 128.6 294.131 127.816 293.553 127.238C292.975 126.659 292.191 126.333 291.373 126.332H228.751Z" fill="white"/>
</g>
</g>
<g id="profile1">
<path id="Vector_78" d="M313.535 333.958H138.246C137.385 333.957 136.56 333.614 135.952 333.006C135.343 332.398 135.001 331.573 135 330.713V287.245C135.001 286.385 135.343 285.56 135.952 284.952C136.56 284.343 137.385 284.001 138.246 284H313.535C314.396 284.001 315.221 284.343 315.83 284.952C316.438 285.56 316.78 286.385 316.781 287.245V330.713C316.78 331.573 316.438 332.398 315.83 333.006C315.221 333.614 314.396 333.957 313.535 333.958V333.958ZM138.246 285.298C137.73 285.299 137.235 285.504 136.87 285.869C136.504 286.234 136.299 286.729 136.298 287.245V330.713C136.299 331.229 136.504 331.724 136.87 332.089C137.235 332.454 137.73 332.659 138.246 332.66H313.535C314.052 332.659 314.547 332.454 314.912 332.089C315.277 331.724 315.482 331.229 315.483 330.713V287.245C315.482 286.729 315.277 286.234 314.912 285.869C314.547 285.504 314.052 285.299 313.535 285.298H138.246Z" fill="black"/>
<g id="Vector_79" filter="url(#filter11_d)">
<path d="M165.482 320.529C172.785 320.529 178.705 314.611 178.705 307.311C178.705 300.011 172.785 294.092 165.482 294.092C158.18 294.092 152.26 300.011 152.26 307.311C152.26 314.611 158.18 320.529 165.482 320.529Z" fill="white"/>
</g>
<g id="Vector_80" filter="url(#filter12_d)">
<path d="M196.021 298.499C195.731 298.498 195.444 298.555 195.176 298.665C194.908 298.776 194.665 298.938 194.46 299.142C194.255 299.347 194.092 299.59 193.981 299.858C193.87 300.125 193.813 300.412 193.813 300.702C193.813 300.991 193.87 301.278 193.981 301.546C194.092 301.813 194.255 302.056 194.46 302.261C194.665 302.466 194.908 302.628 195.176 302.738C195.444 302.849 195.731 302.905 196.021 302.905H299.915C300.499 302.905 301.06 302.673 301.473 302.259C301.886 301.846 302.119 301.286 302.119 300.702C302.119 300.117 301.886 299.557 301.473 299.144C301.06 298.731 300.499 298.499 299.915 298.499H196.021Z" fill="white"/>
</g>
<g id="Vector_81" filter="url(#filter13_d)">
<path d="M196.021 311.717C195.731 311.717 195.444 311.773 195.176 311.884C194.908 311.994 194.665 312.156 194.46 312.361C194.255 312.566 194.092 312.809 193.981 313.076C193.87 313.344 193.813 313.631 193.813 313.92C193.813 314.21 193.87 314.497 193.981 314.764C194.092 315.032 194.255 315.275 194.46 315.479C194.665 315.684 194.908 315.846 195.176 315.957C195.444 316.067 195.731 316.124 196.021 316.123H240.727C241.311 316.123 241.872 315.891 242.285 315.478C242.698 315.065 242.931 314.504 242.931 313.92C242.931 313.336 242.698 312.776 242.285 312.362C241.872 311.949 241.311 311.717 240.727 311.717H196.021Z" fill="white"/>
</g>
</g>
</g>
<defs>
<filter id="filter0_d" x="450.709" y="221.594" width="67.901" height="67.8839" filterUnits="userSpaceOnUse" color-interpolation-filters="sRGB">
<feFlood flood-opacity="0" result="BackgroundImageFix"/>
<feColorMatrix in="SourceAlpha" type="matrix" values="0 0 0 0 0 0 0 0 0 0 0 0 0 0 0 0 0 0 127 0"/>
<feOffset dx="3" dy="7"/>
<feGaussianBlur stdDeviation="4"/>
<feColorMatrix type="matrix" values="0 0 0 0 0 0 0 0 0 0 0 0 0 0 0 0 0 0 0.25 0"/>
<feBlend mode="normal" in2="BackgroundImageFix" result="effect1_dropShadow"/>
<feBlend mode="normal" in="SourceGraphic" in2="effect1_dropShadow" result="shape"/>
</filter>
<filter id="filter1_d" x="464.223" y="235.104" width="40.8727" height="40.8647" filterUnits="userSpaceOnUse" color-interpolation-filters="sRGB">
<feFlood flood-opacity="0" result="BackgroundImageFix"/>
<feColorMatrix in="SourceAlpha" type="matrix" values="0 0 0 0 0 0 0 0 0 0 0 0 0 0 0 0 0 0 127 0"/>
<feOffset dx="3" dy="7"/>
<feGaussianBlur stdDeviation="4"/>
<feColorMatrix type="matrix" values="0 0 0 0 0 0 0 0 0 0 0 0 0 0 0 0 0 0 0.25 0"/>
<feBlend mode="normal" in2="BackgroundImageFix" result="effect1_dropShadow"/>
<feBlend mode="normal" in="SourceGraphic" in2="effect1_dropShadow" result="shape"/>
</filter>
<filter id="filter2_d" x="578.643" y="227.467" width="57.1134" height="12.4061" filterUnits="userSpaceOnUse" color-interpolation-filters="sRGB">
<feFlood flood-opacity="0" result="BackgroundImageFix"/>
<feColorMatrix in="SourceAlpha" type="matrix" values="0 0 0 0 0 0 0 0 0 0 0 0 0 0 0 0 0 0 127 0"/>
<feOffset dy="4"/>
<feGaussianBlur stdDeviation="2"/>
<feColorMatrix type="matrix" values="0 0 0 0 0 0 0 0 0 0 0 0 0 0 0 0 0 0 0.25 0"/>
<feBlend mode="normal" in2="BackgroundImageFix" result="effect1_dropShadow"/>
<feBlend mode="normal" in="SourceGraphic" in2="effect1_dropShadow" result="shape"/>
</filter>
<filter id="filter3_d" x="578.639" y="214.487" width="57.1215" height="12.4062" filterUnits="userSpaceOnUse" color-interpolation-filters="sRGB">
<feFlood flood-opacity="0" result="BackgroundImageFix"/>
<feColorMatrix in="SourceAlpha" type="matrix" values="0 0 0 0 0 0 0 0 0 0 0 0 0 0 0 0 0 0 127 0"/>
<feOffset dy="4"/>
<feGaussianBlur stdDeviation="2"/>
<feColorMatrix type="matrix" values="0 0 0 0 0 0 0 0 0 0 0 0 0 0 0 0 0 0 0.25 0"/>
<feBlend mode="normal" in2="BackgroundImageFix" result="effect1_dropShadow"/>
<feBlend mode="normal" in="SourceGraphic" in2="effect1_dropShadow" result="shape"/>
</filter>
<filter id="filter4_d" x="126" y="15" width="276.636" height="240.986" filterUnits="userSpaceOnUse" color-interpolation-filters="sRGB">
<feFlood flood-opacity="0" result="BackgroundImageFix"/>
<feColorMatrix in="SourceAlpha" type="matrix" values="0 0 0 0 0 0 0 0 0 0 0 0 0 0 0 0 0 0 127 0"/>
<feOffset dx="4" dy="4"/>
<feGaussianBlur stdDeviation="5.5"/>
<feColorMatrix type="matrix" values="0 0 0 0 0 0 0 0 0 0 0 0 0 0 0 0 0 0 0.25 0"/>
<feBlend mode="normal" in2="BackgroundImageFix" result="effect1_dropShadow"/>
<feBlend mode="normal" in="SourceGraphic" in2="effect1_dropShadow" result="shape"/>
</filter>
<filter id="filter5_d" x="157.182" y="182.138" width="49.0433" height="49.0386" filterUnits="userSpaceOnUse" color-interpolation-filters="sRGB">
<feFlood flood-opacity="0" result="BackgroundImageFix"/>
<feColorMatrix in="SourceAlpha" type="matrix" values="0 0 0 0 0 0 0 0 0 0 0 0 0 0 0 0 0 0 127 0"/>
<feOffset dx="6" dy="3"/>
<feGaussianBlur stdDeviation="3"/>
<feColorMatrix type="matrix" values="0 0 0 0 0 0 0 0 0 0 0 0 0 0 0 0 0 0 0.25 0"/>
<feBlend mode="normal" in2="BackgroundImageFix" result="effect1_dropShadow"/>
<feBlend mode="normal" in="SourceGraphic" in2="effect1_dropShadow" result="shape"/>
</filter>
<filter id="filter6_d" x="211.392" y="191.318" width="159.699" height="14.1733" filterUnits="userSpaceOnUse" color-interpolation-filters="sRGB">
<feFlood flood-opacity="0" result="BackgroundImageFix"/>
<feColorMatrix in="SourceAlpha" type="matrix" values="0 0 0 0 0 0 0 0 0 0 0 0 0 0 0 0 0 0 127 0"/>
<feOffset dy="4"/>
<feGaussianBlur stdDeviation="2"/>
<feColorMatrix type="matrix" values="0 0 0 0 0 0 0 0 0 0 0 0 0 0 0 0 0 0 0.25 0"/>
<feBlend mode="normal" in2="BackgroundImageFix" result="effect1_dropShadow"/>
<feBlend mode="normal" in="SourceGraphic" in2="effect1_dropShadow" result="shape"/>
</filter>
<filter id="filter7_d" x="211.391" y="209.838" width="76.7887" height="14.1647" filterUnits="userSpaceOnUse" color-interpolation-filters="sRGB">
<feFlood flood-opacity="0" result="BackgroundImageFix"/>
<feColorMatrix in="SourceAlpha" type="matrix" values="0 0 0 0 0 0 0 0 0 0 0 0 0 0 0 0 0 0 127 0"/>
<feOffset dy="4"/>
<feGaussianBlur stdDeviation="2"/>
<feColorMatrix type="matrix" values="0 0 0 0 0 0 0 0 0 0 0 0 0 0 0 0 0 0 0.25 0"/>
<feBlend mode="normal" in2="BackgroundImageFix" result="effect1_dropShadow"/>
<feBlend mode="normal" in="SourceGraphic" in2="effect1_dropShadow" result="shape"/>
</filter>
<filter id="filter8_d" x="221.664" y="90.7865" width="159.704" height="14.172" filterUnits="userSpaceOnUse" color-interpolation-filters="sRGB">
<feFlood flood-opacity="0" result="BackgroundImageFix"/>
<feColorMatrix in="SourceAlpha" type="matrix" values="0 0 0 0 0 0 0 0 0 0 0 0 0 0 0 0 0 0 127 0"/>
<feOffset dy="4"/>
<feGaussianBlur stdDeviation="2"/>
<feColorMatrix type="matrix" values="0 0 0 0 0 0 0 0 0 0 0 0 0 0 0 0 0 0 0.25 0"/>
<feBlend mode="normal" in2="BackgroundImageFix" result="effect1_dropShadow"/>
<feBlend mode="normal" in="SourceGraphic" in2="effect1_dropShadow" result="shape"/>
</filter>
<filter id="filter9_d" x="221.664" y="108.668" width="159.699" height="14.172" filterUnits="userSpaceOnUse" color-interpolation-filters="sRGB">
<feFlood flood-opacity="0" result="BackgroundImageFix"/>
<feColorMatrix in="SourceAlpha" type="matrix" values="0 0 0 0 0 0 0 0 0 0 0 0 0 0 0 0 0 0 127 0"/>
<feOffset dy="4"/>
<feGaussianBlur stdDeviation="2"/>
<feColorMatrix type="matrix" values="0 0 0 0 0 0 0 0 0 0 0 0 0 0 0 0 0 0 0.25 0"/>
<feBlend mode="normal" in2="BackgroundImageFix" result="effect1_dropShadow"/>
<feBlend mode="normal" in="SourceGraphic" in2="effect1_dropShadow" result="shape"/>
</filter>
<filter id="filter10_d" x="221.664" y="126.332" width="76.7911" height="14.172" filterUnits="userSpaceOnUse" color-interpolation-filters="sRGB">
<feFlood flood-opacity="0" result="BackgroundImageFix"/>
<feColorMatrix in="SourceAlpha" type="matrix" values="0 0 0 0 0 0 0 0 0 0 0 0 0 0 0 0 0 0 127 0"/>
<feOffset dy="4"/>
<feGaussianBlur stdDeviation="2"/>
<feColorMatrix type="matrix" values="0 0 0 0 0 0 0 0 0 0 0 0 0 0 0 0 0 0 0.25 0"/>
<feBlend mode="normal" in2="BackgroundImageFix" result="effect1_dropShadow"/>
<feBlend mode="normal" in="SourceGraphic" in2="effect1_dropShadow" result="shape"/>
</filter>
<filter id="filter11_d" x="148.26" y="287.092" width="44.4457" height="44.437" filterUnits="userSpaceOnUse" color-interpolation-filters="sRGB">
<feFlood flood-opacity="0" result="BackgroundImageFix"/>
<feColorMatrix in="SourceAlpha" type="matrix" values="0 0 0 0 0 0 0 0 0 0 0 0 0 0 0 0 0 0 127 0"/>
<feOffset dx="5" dy="2"/>
<feGaussianBlur stdDeviation="4.5"/>
<feColorMatrix type="matrix" values="0 0 0 0 0 0 0 0 0 0 0 0 0 0 0 0 0 0 0.25 0"/>
<feBlend mode="normal" in2="BackgroundImageFix" result="effect1_dropShadow"/>
<feBlend mode="normal" in="SourceGraphic" in2="effect1_dropShadow" result="shape"/>
</filter>
<filter id="filter12_d" x="189.813" y="298.499" width="116.305" height="12.4062" filterUnits="userSpaceOnUse" color-interpolation-filters="sRGB">
<feFlood flood-opacity="0" result="BackgroundImageFix"/>
<feColorMatrix in="SourceAlpha" type="matrix" values="0 0 0 0 0 0 0 0 0 0 0 0 0 0 0 0 0 0 127 0"/>
<feOffset dy="4"/>
<feGaussianBlur stdDeviation="2"/>
<feColorMatrix type="matrix" values="0 0 0 0 0 0 0 0 0 0 0 0 0 0 0 0 0 0 0.25 0"/>
<feBlend mode="normal" in2="BackgroundImageFix" result="effect1_dropShadow"/>
<feBlend mode="normal" in="SourceGraphic" in2="effect1_dropShadow" result="shape"/>
</filter>
<filter id="filter13_d" x="189.813" y="311.717" width="57.1175" height="12.4062" filterUnits="userSpaceOnUse" color-interpolation-filters="sRGB">
<feFlood flood-opacity="0" result="BackgroundImageFix"/>
<feColorMatrix in="SourceAlpha" type="matrix" values="0 0 0 0 0 0 0 0 0 0 0 0 0 0 0 0 0 0 127 0"/>
<feOffset dy="4"/>
<feGaussianBlur stdDeviation="2"/>
<feColorMatrix type="matrix" values="0 0 0 0 0 0 0 0 0 0 0 0 0 0 0 0 0 0 0.25 0"/>
<feBlend mode="normal" in2="BackgroundImageFix" result="effect1_dropShadow"/>
<feBlend mode="normal" in="SourceGraphic" in2="effect1_dropShadow" result="shape"/>
</filter>
</defs>
</svg>
