<svg width="871" height="688" viewBox="0 0 871 688" fill="none" xmlns="http://www.w3.org/2000/svg">
<g id="undraw_urban_design_kpu8 1" clip-path="url(#clip0)">
<g id="ring">
<path id="Vector" d="M386.041 654.31C320.97 654.31 257.912 631.756 207.612 590.491C157.312 549.226 122.881 491.803 110.186 428.006C97.491 364.209 107.318 297.986 137.992 240.62C168.666 183.254 218.289 138.294 278.406 113.402C338.524 88.5095 405.416 85.2244 467.685 104.106C529.953 122.988 583.746 162.869 619.898 216.953C656.049 271.038 672.322 335.979 665.944 400.713C659.566 465.446 630.932 525.966 584.92 571.961C558.863 598.151 527.869 618.914 493.732 633.049C459.594 647.184 422.991 654.41 386.041 654.31ZM386.041 94.1477C232.139 94.1477 106.93 219.31 106.93 373.155C106.93 527.001 232.139 652.163 386.041 652.163C539.943 652.163 665.151 527.001 665.151 373.155C665.151 219.31 539.943 94.1477 386.041 94.1477V94.1477Z" fill="#2F2E41"/>
<path id="Vector_2" d="M149.5 370C199.482 370 240 329.482 240 279.5C240 229.518 199.482 189 149.5 189C99.5182 189 59 229.518 59 279.5C59 329.482 99.5182 370 149.5 370Z" fill="#FF6F8C"/>
</g>
<path id="Vector_3" d="M520.628 359.659C520.628 462.083 459.716 497.845 384.577 497.845C309.438 497.845 248.526 462.083 248.526 359.659C248.526 257.234 384.577 126.935 384.577 126.935C384.577 126.935 520.628 257.234 520.628 359.659Z" fill="#2196F3"/>
<path id="Vector_4" d="M379.621 482.178L381.014 396.457L439.002 290.41L381.232 383.011L381.859 344.468L421.824 267.744L382.025 334.268L383.152 264.947L425.947 203.864L383.329 254.046L384.032 126.935L379.609 295.207L379.973 288.265L336.461 221.69L379.275 301.591L375.221 379.011L375.1 376.956L324.94 306.895L374.948 384.215L374.441 393.898L374.35 394.043L374.391 394.838L364.106 591.26H377.848L379.497 489.805L429.382 412.673L379.621 482.178Z" fill="#3F3D56"/>
<path id="Vector_5" d="M651.898 456.399C651.898 558.823 590.986 594.585 515.847 594.585C440.709 594.585 379.796 558.823 379.796 456.399C379.796 353.974 515.847 223.675 515.847 223.675C515.847 223.675 651.898 353.974 651.898 456.399Z" fill="#0E3351"/>
<path id="Vector_6" d="M510.891 578.917L512.285 493.198L570.272 387.15L512.503 479.751L513.129 441.208L553.095 364.484L513.295 431.008V431.009L514.422 361.686L557.217 300.605L514.598 350.786L515.303 223.674L510.879 391.947L511.243 385.006L467.731 318.43L510.545 398.331L506.491 475.751L506.369 473.696L456.21 403.635L506.218 480.956L505.711 490.638L505.62 490.784L505.661 491.579L495.376 688H509.118L510.767 586.544L560.652 509.413L510.891 578.917Z" fill="#F2F2F2"/>
<path id="Vector_7" d="M396.065 456.399C396.065 558.823 335.153 594.585 260.014 594.585C184.875 594.585 123.963 558.823 123.963 456.399C123.963 353.974 260.014 223.675 260.014 223.675C260.014 223.675 396.065 353.974 396.065 456.399Z" fill="#0E3351"/>
<path id="Vector_8" d="M255.058 578.917L256.452 493.198L314.44 387.15L256.67 479.751L257.296 441.208L297.262 364.484L257.462 431.008V431.009L258.588 361.686L301.384 300.605L258.765 350.786L259.47 223.674L255.047 391.947L255.41 385.006L211.899 318.43L254.712 398.331L250.657 475.751L250.537 473.696L200.377 403.635L250.385 480.956L249.878 490.638L249.787 490.784L249.829 491.579L239.543 688H253.285L254.934 586.544L304.82 509.413L255.058 578.917Z" fill="#F2F2F2"/>
<path id="Vector_9" d="M618.023 566.385V686.112H158.099V566.385L388.061 446.657L388.54 446.906L618.023 566.385Z" fill="#F2F2F2"/>
<path id="Vector_10" opacity="0.1" d="M618.023 566.385V686.112H388.54V446.906L618.023 566.385Z" fill="black"/>
<path id="Vector_11" d="M368.418 519.93L351.172 526.44V500.774L368.418 493.218V519.93Z" fill="#3F3D56"/>
<path id="Vector_12" d="M177.742 591.767L171.993 593.94V578.358L177.742 575.817V591.767Z" fill="#3F3D56"/>
<path id="Vector_13" d="M197.864 585.062L191.156 587.575V570.695L197.864 567.752V585.062Z" fill="#3F3D56"/>
<path id="Vector_14" d="M219.901 576.442L212.236 579.324V561.117L219.901 557.744V576.442Z" fill="#3F3D56"/>
<path id="Vector_15" d="M246.731 565.906L237.149 569.521V550.581L246.731 546.378V565.906Z" fill="#3F3D56"/>
<path id="Vector_16" d="M279.308 553.454L267.81 557.798V537.171L279.308 532.13V553.454Z" fill="#3F3D56"/>
<path id="Vector_17" d="M318.594 539.086L305.179 544.138V520.888L318.594 515.01V539.086Z" fill="#3F3D56"/>
<path id="Vector_18" d="M177.742 623.375L171.993 624.82V609.008L177.742 607.19V623.375Z" fill="#3F3D56"/>
<path id="Vector_19" d="M197.864 618.586L191.156 620.265V603.261L197.864 601.148V618.586Z" fill="#3F3D56"/>
<path id="Vector_20" d="M219.901 612.839L212.236 614.764V596.556L219.901 594.139V612.839Z" fill="#3F3D56"/>
<path id="Vector_21" d="M246.731 606.135L237.149 608.54V588.894L246.731 585.879V606.135Z" fill="#3F3D56"/>
<path id="Vector_22" d="M279.308 597.514L267.81 600.414V579.315L279.308 575.7V597.514Z" fill="#3F3D56"/>
<path id="Vector_23" d="M318.594 587.936L304.221 591.55V567.822L318.594 563.301V587.936Z" fill="#3F3D56"/>
<path id="Vector_24" d="M368.418 575.484L351.172 579.818V553.454L368.418 548.046V575.484Z" fill="#3F3D56"/>
<path id="Vector_25" d="M368.418 630.08L351.172 632.275V606.135L368.418 602.874V630.08Z" fill="#3F3D56"/>
<path id="Vector_26" d="M177.742 654.025L171.993 654.764V639.658L177.742 638.563V654.025Z" fill="#3F3D56"/>
<path id="Vector_27" d="M197.864 652.11L191.156 652.955V636.785L197.864 635.527V652.11Z" fill="#3F3D56"/>
<path id="Vector_28" d="M219.901 649.236L212.236 650.206V631.996L219.901 630.536V649.236Z" fill="#3F3D56"/>
<path id="Vector_29" d="M246.731 645.405L237.149 646.629V627.207L246.731 625.38V645.405Z" fill="#3F3D56"/>
<path id="Vector_30" d="M279.308 641.573L267.81 643.032V621.46L279.308 619.271V641.573Z" fill="#3F3D56"/>
<path id="Vector_31" d="M318.594 636.785L304.221 638.601V614.755L318.594 612.028V636.785Z" fill="#3F3D56"/>
<path id="Vector_32" d="M599.339 591.767L605.089 593.94V578.358L599.339 575.817V591.767Z" fill="#3F3D56"/>
<path id="Vector_33" d="M579.217 585.062L585.925 587.575V570.695L579.217 567.752V585.062Z" fill="#3F3D56"/>
<path id="Vector_34" d="M557.179 576.442L564.845 579.324V561.117L557.179 557.744V576.442Z" fill="#3F3D56"/>
<path id="Vector_35" d="M530.35 565.906L539.932 569.521V550.581L530.35 546.378V565.906Z" fill="#3F3D56"/>
<path id="Vector_36" d="M497.773 553.454L509.27 557.798V537.171L497.773 532.13V553.454Z" fill="#3F3D56"/>
<path id="Vector_37" d="M458.487 539.086L471.902 544.138V520.888L458.487 515.01V539.086Z" fill="#3F3D56"/>
<path id="Vector_38" d="M599.339 623.375L605.089 624.82V609.008L599.339 607.19V623.375Z" fill="#3F3D56"/>
<path id="Vector_39" d="M579.217 618.586L585.925 620.265V603.261L579.217 601.148V618.586Z" fill="#3F3D56"/>
<path id="Vector_40" d="M557.179 612.839L564.845 614.764V596.556L557.179 594.139V612.839Z" fill="#3F3D56"/>
<path id="Vector_41" d="M530.35 606.135L539.932 608.54V588.894L530.35 585.879V606.135Z" fill="#3F3D56"/>
<path id="Vector_42" d="M497.773 597.514L509.27 600.414V579.315L497.773 575.7V597.514Z" fill="#3F3D56"/>
<path id="Vector_43" d="M458.487 587.936L472.86 591.55V567.822L458.487 563.301V587.936Z" fill="#3F3D56"/>
<path id="Vector_44" d="M408.662 575.484L425.91 579.818V553.454L408.662 548.046V575.484Z" fill="#3F3D56"/>
<path id="Vector_45" d="M408.662 630.08L425.91 632.275V606.135L408.662 602.874V630.08Z" fill="#3F3D56"/>
<path id="Vector_46" d="M599.339 654.025L605.089 654.764V639.658L599.339 638.563V654.025Z" fill="#3F3D56"/>
<path id="Vector_47" d="M579.217 652.11L585.925 652.955V636.785L579.217 635.527V652.11Z" fill="#3F3D56"/>
<path id="Vector_48" d="M557.179 649.236L564.845 650.206V631.996L557.179 630.536V649.236Z" fill="#3F3D56"/>
<path id="Vector_49" d="M530.35 645.405L539.932 646.629V627.207L530.35 625.38V645.405Z" fill="#3F3D56"/>
<path id="Vector_50" d="M497.773 641.573L509.27 643.032V621.46L497.773 619.271V641.573Z" fill="#3F3D56"/>
<path id="Vector_51" d="M458.487 636.785L472.86 638.601V614.755L458.487 612.028V636.785Z" fill="#3F3D56"/>
<path id="Vector_52" d="M424.951 526.635L407.704 520.134V493.112L424.951 500.671V526.635Z" fill="#3F3D56"/>
<path id="Vector_53" d="M586.898 664.793H585.492V687.278H586.898V664.793Z" fill="#2F2E41"/>
<path id="Vector_54" d="M603.461 670.913H602.465V686.846H603.461V670.913Z" fill="#2F2E41"/>
<path id="Vector_55" d="M618.18 672.859H617.305V686.862H618.18V672.859Z" fill="#2F2E41"/>
<path id="Vector_56" d="M545.681 657.665V686.591L526.997 686.563L508.313 686.534V654.025L526.997 655.846L545.681 657.665Z" fill="#3F3D56"/>
<path id="Vector_57" d="M231.4 686.591L268.768 686.532V654.025L231.4 657.661V686.591Z" fill="#3F3D56"/>
<path id="Vector_58" d="M837.267 685.634H0V687.549H837.267V685.634Z" fill="#2F2E41"/>
<path id="Vector_59" opacity="0.1" d="M545.681 657.665V686.591L526.997 686.563V655.846L545.681 657.665Z" fill="black"/>
<path id="Vector_60" d="M386.145 660.251H384.229V687.07H386.145V660.251Z" fill="#2F2E41"/>
<path id="Vector_61" d="M396.246 650.703C396.246 660.101 391.224 667.944 385.187 668.213C379.318 668.475 374.678 661.443 374.678 652.512C374.678 643.582 386.145 619.065 386.145 619.065C386.145 619.065 396.246 641.306 396.246 650.703Z" fill="#2196F3"/>
<path id="Vector_62" d="M160.698 668.846H159.555V684.843H160.698V668.846Z" fill="#2F2E41"/>
<path id="Vector_63" d="M166.723 663.151C166.723 668.757 163.727 673.435 160.126 673.595C156.626 673.752 153.858 669.557 153.858 664.23C153.858 658.904 160.698 644.28 160.698 644.28C160.698 644.28 166.723 657.546 166.723 663.151Z" fill="#2196F3"/>
<path id="Vector_64" d="M593.927 665.68C593.927 671.011 590.566 675.175 586.195 674.97C581.553 674.753 577.574 669.748 577.574 663.804C577.574 657.861 586.195 643.011 586.195 643.011C586.195 643.011 593.927 660.349 593.927 665.68Z" fill="#2196F3"/>
<path id="Vector_65" d="M608.442 671.542C608.442 675.32 606.06 678.27 602.963 678.125C599.674 677.971 596.854 674.424 596.854 670.213C596.854 666.001 602.963 655.478 602.963 655.478C602.963 655.478 608.442 667.764 608.442 671.542Z" fill="#2196F3"/>
<path id="Vector_66" d="M622.558 673.412C622.558 676.732 620.465 679.325 617.742 679.197C614.852 679.062 612.374 675.945 612.374 672.243C612.374 668.542 617.742 659.294 617.742 659.294C617.742 659.294 622.558 670.091 622.558 673.412Z" fill="#2196F3"/>
<path id="Vector_67" d="M629.362 154.302C629.362 154.302 620.036 182.271 625.217 188.486C630.399 194.701 594.129 169.84 594.129 169.84L613.818 147.05L629.362 154.302Z" fill="#A0616A"/>
<path id="Vector_68" d="M610.043 153.437C635.73 152.747 655.993 131.372 655.303 105.694C654.613 80.0172 633.231 59.7614 607.544 60.4517C581.857 61.1421 561.594 82.5172 562.284 108.194C562.974 133.871 584.357 154.127 610.043 153.437Z" fill="#2F2E41"/>
<path id="Vector_69" d="M788.948 469.211L765.114 487.857L751.642 466.103L775.476 449.529L788.948 469.211Z" fill="#A0616A"/>
<path id="Vector_70" d="M635.062 237.691L643.352 285.341C643.352 285.341 731.435 276.018 737.652 293.628C743.87 311.239 745.943 316.418 745.943 316.418L728.326 322.633L720.036 307.095C717.511 306.201 714.83 305.832 712.157 306.01C709.484 306.188 706.876 306.91 704.492 308.131C696.202 312.274 623.663 322.633 618.481 309.167C613.3 295.7 598.792 245.978 598.792 245.978L620.554 228.368L635.062 237.691Z" fill="#A0616A"/>
<path id="Vector_71" opacity="0.1" d="M635.062 237.691L643.352 285.341C643.352 285.341 731.435 276.018 737.652 293.628C743.87 311.239 745.943 316.418 745.943 316.418L728.326 322.633L720.036 307.095C717.511 306.201 714.83 305.832 712.157 306.01C709.484 306.188 706.876 306.91 704.492 308.131C696.202 312.274 623.663 322.633 618.481 309.167C613.3 295.7 598.792 245.978 598.792 245.978L620.554 228.368L635.062 237.691Z" fill="black"/>
<path id="Vector_72" d="M683.766 375.463L691.02 400.325L709.673 495.626C709.673 495.626 711.746 566.067 714.854 574.354C717.963 582.641 717.963 583.677 714.854 586.784C711.746 589.892 705.528 600.251 714.854 606.466C724.181 612.682 757.341 619.933 758.378 612.682C759.414 605.43 759.414 594.036 758.378 588.856C757.341 583.677 761.487 502.878 761.487 502.878L749.051 379.607L706.564 359.925L683.766 375.463Z" fill="#2F2E41"/>
<path id="Vector_73" d="M728.326 278.09L751.124 321.597C751.124 321.597 881.694 379.607 870.295 403.432C858.896 427.258 795.683 471.801 795.683 471.801C795.683 471.801 792.575 489.411 783.248 484.232C773.922 479.052 751.124 452.119 753.196 449.011C755.269 445.904 762.523 438.653 765.632 439.688C768.74 440.724 805.01 412.755 805.01 412.755L742.834 397.217C742.834 397.217 668.222 395.145 664.077 359.925C659.932 324.705 664.077 318.49 664.077 318.49L658.896 307.095L701.383 281.198L728.326 278.09Z" fill="#2F2E41"/>
<path id="Vector_74" d="M627.384 161.306C646.836 160.784 662.181 144.597 661.659 125.152C661.136 105.708 644.944 90.3688 625.492 90.8916C606.04 91.4143 590.695 107.601 591.218 127.046C591.74 146.49 607.933 161.829 627.384 161.306Z" fill="#A0616A"/>
<path id="Vector_75" d="M590.502 154.82C590.502 154.82 607.082 150.676 612.264 154.82C617.445 158.963 618.481 168.286 625.735 169.322C632.989 170.358 639.207 170.358 640.243 171.394C641.279 172.43 665.114 201.434 665.114 201.434C665.114 201.434 679.621 209.722 682.73 221.116C685.839 232.511 716.927 270.839 721.072 274.982C725.217 279.126 694.129 299.844 683.766 307.095C673.404 314.346 643.352 317.454 634.025 300.88C624.699 284.305 573.922 176.573 590.502 154.82Z" fill="#2196F3"/>
<path id="Vector_76" d="M629.88 222.152L638.171 269.803C638.171 269.803 726.253 260.48 732.471 278.09C738.689 295.7 740.761 300.88 740.761 300.88L723.145 307.095L714.854 291.557C712.329 290.663 709.648 290.294 706.976 290.472C704.303 290.65 701.694 291.372 699.31 292.593C691.02 296.736 618.481 307.095 613.3 293.628C608.119 280.162 593.611 230.439 593.611 230.439L615.373 212.829L629.88 222.152Z" fill="#A0616A"/>
<path id="Vector_77" d="M610.077 159.178C610.077 159.178 635.062 211.793 632.989 226.296C630.917 240.798 623.663 230.439 623.663 230.439C623.663 230.439 614.336 215.937 610.191 224.224C606.046 232.511 600.865 243.906 596.72 242.87C592.575 241.834 569.777 165.178 582.212 157.927C594.647 150.676 610.077 159.178 610.077 159.178Z" fill="#2196F3"/>
<path id="Vector_78" d="M558.012 93.5759C583.699 92.8855 603.963 71.5104 603.273 45.8333C602.582 20.1561 581.2 -0.0997258 555.513 0.590622C529.827 1.28097 509.563 22.6561 510.253 48.3332C510.943 74.0104 532.326 94.2662 558.012 93.5759Z" fill="#2F2E41"/>
<path id="Vector_79" d="M517.68 86.6603C523.817 90.8478 530.868 93.5052 538.243 94.4103C545.617 95.3154 553.102 94.4418 560.07 91.8626C567.038 89.2835 573.286 85.0737 578.293 79.5855C583.3 74.0973 586.919 67.4904 588.848 60.3175C588.217 66.7161 586.266 72.9145 583.118 78.5213C579.97 84.1282 575.693 89.0217 570.557 92.893C565.422 96.7642 559.539 99.5291 553.281 101.013C547.023 102.497 540.524 102.668 534.197 101.515C527.869 100.361 521.849 97.9094 516.518 94.3132C511.186 90.7171 506.658 86.055 503.22 80.6212C499.781 75.1874 497.508 69.1001 496.541 62.7435C495.575 56.3868 495.938 49.899 497.607 43.6896C496.788 51.9937 498.219 60.3652 501.751 67.9258C505.283 75.4864 510.785 81.9575 517.68 86.6603V86.6603Z" fill="#2F2E41"/>
<path id="Vector_80" d="M600.351 149.045C619.188 148.539 634.048 132.863 633.542 114.034C633.036 95.2036 617.355 80.3494 598.519 80.8556C579.682 81.3619 564.822 97.0369 565.328 115.867C565.834 134.697 581.514 149.551 600.351 149.045Z" fill="#2F2E41"/>
<path id="Vector_81" d="M625.572 125.104C642.268 124.655 655.519 113.71 655.168 100.658C654.817 87.6051 640.998 77.3876 624.301 77.8364C607.605 78.2851 594.354 89.23 594.705 102.283C595.056 115.335 608.875 125.553 625.572 125.104Z" fill="#2F2E41"/>
<path id="Vector_82" d="M627.374 141.618C631.092 141.518 633.964 136.105 633.787 129.528C633.61 122.952 630.452 117.701 626.733 117.801C623.015 117.901 620.143 123.314 620.32 129.89C620.497 136.467 623.655 141.718 627.374 141.618Z" fill="#A0616A"/>
<g id="car1">
<g id="backwheel">
<path id="Vector_83" d="M10.6103 671.079C10.6101 675.001 12.1237 678.772 14.8351 681.604C17.5465 684.437 21.2463 686.112 25.1624 686.281C29.0785 686.449 32.9083 685.098 35.8526 682.508C38.7969 679.919 40.6283 676.292 40.9646 672.384C40.9867 672.137 41.0033 671.89 41.0106 671.639V671.626C41.018 671.444 41.0217 671.261 41.0217 671.079C41.0203 667.044 39.4177 663.175 36.5663 660.323C33.7148 657.47 29.8479 655.868 25.816 655.868C21.7841 655.868 17.9172 657.47 15.0657 660.323C12.2142 663.175 10.6116 667.044 10.6103 671.079V671.079Z" fill="#65617D"/>
<path id="Vector_84" opacity="0.4" d="M10.6103 671.079C10.6101 675.001 12.1237 678.772 14.8351 681.604C17.5465 684.437 21.2463 686.112 25.1624 686.281C29.0785 686.449 32.9083 685.098 35.8526 682.508C38.7969 679.919 40.6283 676.292 40.9646 672.384C40.9867 672.137 41.0033 671.89 41.0106 671.639V671.626C41.018 671.444 41.0217 671.261 41.0217 671.079C41.0203 667.044 39.4177 663.175 36.5663 660.323C33.7148 657.47 29.8479 655.868 25.816 655.868C21.7841 655.868 17.9172 657.47 15.0657 660.323C12.2142 663.175 10.6116 667.044 10.6103 671.079V671.079Z" fill="url(#paint0_linear)"/>
<path id="Vector_85" d="M25.8165 679.378C21.2358 679.378 17.5224 675.662 17.5224 671.079C17.5224 666.495 21.2358 662.779 25.8165 662.779C30.3971 662.779 34.1105 666.495 34.1105 671.079C34.1105 675.662 30.3971 679.378 25.8165 679.378Z" fill="#DCE0ED"/>
<path id="Vector_86" d="M25.8164 676.058C23.068 676.058 20.84 673.829 20.84 671.079C20.84 668.328 23.068 666.099 25.8164 666.099C28.5648 666.099 30.7928 668.328 30.7928 671.079C30.7928 673.829 28.5648 676.058 25.8164 676.058Z" fill="#65617D"/>
</g>
<g id="frontwheel">
<path id="Vector_87" d="M91.7868 671.079C91.7866 675.001 93.3002 678.772 96.0116 681.604C98.723 684.437 102.423 686.112 106.339 686.281C110.255 686.449 114.085 685.098 117.029 682.509C119.973 679.919 121.805 676.292 122.141 672.384C122.163 672.137 122.18 671.89 122.187 671.639V671.626C122.194 671.444 122.198 671.261 122.198 671.079C122.197 667.044 120.594 663.175 117.743 660.323C114.891 657.47 111.024 655.868 106.992 655.868C102.961 655.868 99.0937 657.47 96.2422 660.323C93.3907 663.175 91.7881 667.044 91.7868 671.079V671.079Z" fill="#65617D"/>
<g id="Vector_88" opacity="0.4">
<path d="M91.7868 671.079C91.7866 675.001 93.3002 678.772 96.0116 681.604C98.723 684.437 102.423 686.112 106.339 686.281C110.255 686.449 114.085 685.098 117.029 682.509C119.973 679.919 121.805 676.292 122.141 672.384C122.163 672.137 122.18 671.89 122.187 671.639V671.626C122.194 671.444 122.198 671.261 122.198 671.079C122.197 667.044 120.594 663.175 117.743 660.323C114.891 657.47 111.024 655.868 106.992 655.868C102.961 655.868 99.0937 657.47 96.2422 660.323C93.3907 663.175 91.7881 667.044 91.7868 671.079V671.079Z" fill="url(#paint1_linear)"/>
<path d="M91.7868 671.079C91.7866 675.001 93.3002 678.772 96.0116 681.604C98.723 684.437 102.423 686.112 106.339 686.281C110.255 686.449 114.085 685.098 117.029 682.509C119.973 679.919 121.805 676.292 122.141 672.384C122.163 672.137 122.18 671.89 122.187 671.639V671.626C122.194 671.444 122.198 671.261 122.198 671.079C122.197 667.044 120.594 663.175 117.743 660.323C114.891 657.47 111.024 655.868 106.992 655.868C102.961 655.868 99.0937 657.47 96.2422 660.323C93.3907 663.175 91.7881 667.044 91.7868 671.079V671.079Z" fill="url(#paint2_linear)"/>
</g>
<path id="Vector_89" d="M106.993 679.378C102.412 679.378 98.6989 675.662 98.6989 671.079C98.6989 666.495 102.412 662.779 106.993 662.779C111.574 662.779 115.287 666.495 115.287 671.079C115.287 675.662 111.574 679.378 106.993 679.378Z" fill="#DCE0ED"/>
<path id="Vector_90" d="M106.993 676.058C104.245 676.058 102.016 673.829 102.016 671.079C102.016 668.328 104.245 666.099 106.993 666.099C109.741 666.099 111.969 668.328 111.969 671.079C111.969 673.829 109.741 676.058 106.993 676.058Z" fill="#65617D"/>
</g>
<path id="Vector_91" d="M5.86765 668.228L10.9412 668.007L15.5735 659.398L31.8971 658.074L39.8382 668.448L39.3971 671.318L40.5 673.967L92.3382 674.408V673.084H92.7794L93.2206 671.097H89.25L92.1176 668.007L102.265 659.398C102.265 659.398 119.691 659.84 119.912 659.398C120.132 658.957 118.919 654.431 118.919 654.431L111.419 652.224L85.8309 650.238C80.2059 641.298 75.1324 637.104 75.1324 637.104H9.39708L6.30883 652.997V653.034L5.86765 668.228Z" fill="#444053"/>
<path id="Vector_92" d="M42.4853 669.331C42.4853 669.331 35.8676 656.97 30.7941 656.97H18.4412C18.4412 656.97 15.3529 656.97 14.0294 659.398L8.95589 669.331H12.9265C12.9265 669.331 16.2353 660.06 19.9853 659.84C23.7353 659.619 30.1324 659.84 30.1324 659.84C30.1324 659.84 32.3382 659.84 33.6618 662.488C34.9853 665.137 39.4602 670.907 39.4602 670.907C39.4602 670.907 44.25 672.422 42.4853 669.331Z" fill="#33323D"/>
<path id="Vector_93" d="M3.00003 667.345H11.2976L11.3823 673.967L3.00003 671.98V667.345Z" fill="#33323D"/>
<path id="Vector_94" d="M123 663.371C123 663.371 122.559 660.06 119.471 658.736L99.1765 657.632C99.1765 657.632 95.8676 657.853 94.1029 662.047L88.3676 670.656V671.98H94.7647C94.7647 671.98 97.8529 660.281 106.676 660.722H117.265C117.265 660.722 119.691 660.722 120.574 664.696L123 663.371Z" fill="#33323D"/>
<path id="Vector_95" opacity="0.3" d="M60.8401 651.452H79.5799C79.791 651.452 79.9987 651.399 80.1842 651.298C80.3697 651.197 80.5272 651.052 80.6422 650.875C80.7572 650.697 80.8262 650.494 80.8429 650.284C80.8595 650.073 80.8234 649.862 80.7376 649.669L77.7723 642.992C77.3148 641.962 76.5686 641.087 75.6241 640.473C74.6796 639.859 73.5773 639.532 72.4509 639.532H61.0651C60.8557 639.532 60.6483 639.573 60.4549 639.653C60.2614 639.733 60.0857 639.851 59.9376 639.999C59.7895 640.147 59.6721 640.323 59.592 640.517C59.5118 640.71 59.4706 640.918 59.4706 641.127V650.081C59.4706 650.261 59.506 650.439 59.5748 650.606C59.6437 650.772 59.7445 650.923 59.8717 651.05C59.9989 651.177 60.1499 651.278 60.316 651.347C60.4822 651.416 60.6603 651.452 60.8401 651.452Z" fill="#2196F3"/>
<path id="Vector_96" opacity="0.3" d="M37.2517 639.532H53.6747C54.1955 639.532 54.6176 639.954 54.6176 640.475V650.508C54.6176 651.029 54.1955 651.452 53.6747 651.452H37.2517C36.7309 651.452 36.3088 651.029 36.3088 650.508V640.475C36.3088 639.954 36.7309 639.532 37.2517 639.532Z" fill="#2196F3"/>
<path id="Vector_97" d="M6.30875 652.997V653.034L34.7648 653.438L35.5059 637.104H9.39709L6.30875 652.997Z" fill="#33323D"/>
<path id="Vector_98" opacity="0.3" d="M12.3252 639.532H31.3954C31.9161 639.532 32.3383 639.954 32.3383 640.475V650.508C32.3383 651.029 31.9161 651.452 31.3954 651.452H12.3252C11.8045 651.452 11.3824 651.029 11.3824 650.508V640.475C11.3824 639.954 11.8045 639.532 12.3252 639.532Z" fill="#2196F3"/>
<path id="Vector_99" d="M75 638H9C9 637.47 9.24914 636.961 9.69263 636.586C10.1361 636.211 10.7376 636 11.3648 636H72.6352C72.9457 636 73.2532 636.052 73.5402 636.152C73.8271 636.253 74.0878 636.4 74.3074 636.586C74.527 636.772 74.7011 636.992 74.82 637.235C74.9388 637.477 75 637.737 75 638Z" fill="#2196F3"/>
<path id="Vector_100" d="M58.4466 655.646H64.9063C65.0718 655.646 65.2059 655.78 65.2059 655.945V656.67C65.2059 656.836 65.0718 656.97 64.9063 656.97H58.4466C58.2812 656.97 58.147 656.836 58.147 656.67V655.945C58.147 655.78 58.2812 655.646 58.4466 655.646Z" fill="#33323D"/>
<path id="Vector_101" d="M38.1525 655.646H44.6122C44.7777 655.646 44.9118 655.78 44.9118 655.945V656.67C44.9118 656.836 44.7777 656.97 44.6122 656.97H38.1525C37.9871 656.97 37.853 656.836 37.853 656.67V655.945C37.853 655.78 37.9871 655.646 38.1525 655.646Z" fill="#33323D"/>
</g>
<path id="Vector_102" d="M718.196 306.642C718.196 306.642 736.541 296.121 739.946 298.759C743.352 301.398 744.865 309.653 744.865 309.653L723.663 317.972L717.445 306.577L718.196 306.642Z" fill="#2F2E41"/>
<path id="Vector_103" d="M755.269 609.574L761.487 639.615L779.103 663.44C779.103 663.44 826.772 677.942 794.647 685.194C762.523 692.445 755.269 680.014 755.269 680.014L732.471 660.332V687.265H717.963L714.854 648.938C714.854 648.938 712.782 637.543 722.108 625.112L724.181 606.466L755.269 609.574Z" fill="#143E60"/>
<path id="Vector_104" opacity="0.1" d="M683.766 375.463L691.02 400.325L709.673 495.626C709.673 495.626 711.746 566.067 714.854 574.354C717.963 582.641 717.963 583.677 714.854 586.784C711.746 589.892 705.528 600.251 714.854 606.466C724.181 612.682 757.341 619.933 758.378 612.682C759.414 605.43 759.414 594.036 758.378 588.856C757.341 583.677 761.487 502.878 761.487 502.878L749.051 379.607L706.564 359.925L683.766 375.463Z" fill="black"/>
<path id="Vector_105" d="M760.45 450.047L738.689 469.729C738.689 469.729 720.036 461.442 708.637 464.55C697.238 467.657 677.549 469.729 677.549 469.729L680.658 487.339L707.097 482.463L685.839 512.201C685.839 512.201 685.839 558.816 699.31 558.816C712.782 558.816 708.637 530.847 708.637 530.847L750.088 498.734C750.088 498.734 770.813 490.447 772.886 490.447C774.958 490.447 760.45 450.047 760.45 450.047Z" fill="#143E60"/>
</g>
<defs>
<linearGradient id="paint0_linear" x1="26" y1="662" x2="26" y2="678.5" gradientUnits="userSpaceOnUse">
<stop/>
<stop offset="1" stop-color="#2196F3"/>
</linearGradient>
<linearGradient id="paint1_linear" x1="106.992" y1="655.868" x2="106.992" y2="686.295" gradientUnits="userSpaceOnUse">
<stop/>
<stop offset="1" stop-color="#2196F3"/>
</linearGradient>
<linearGradient id="paint2_linear" x1="107.176" y1="662" x2="107.176" y2="678.5" gradientUnits="userSpaceOnUse">
<stop/>
<stop offset="1" stop-color="#2196F3"/>
</linearGradient>
<clipPath id="clip0">
<rect width="871" height="688" fill="white"/>
</clipPath>
</defs>
</svg>
