<svg width="861" height="614" viewBox="0 0 861 614" fill="none" xmlns="http://www.w3.org/2000/svg">
<g id="undraw_Security_on_re_e491 1">
<g id="undraw_judge_katerina_limpitsouni_ny1q 1" clip-path="url(#clip0)">
<path id="Vector" opacity="0.1" d="M694.137 346.434C692.037 327.581 685.929 309.746 677.963 293.81C659.985 257.802 632.741 230.937 603.291 211.693C603.007 211.504 602.7 211.326 602.434 211.143C605.686 207.288 608.011 202.737 609.229 197.841C618.288 160.697 557.189 113.878 472.801 93.2792C405.078 76.7695 342.926 82.1425 316.326 104.108C254.28 100.203 189.55 138.406 146.534 197.249C131.158 218.309 118.148 243.186 112.442 271.312C105.499 305.373 109.651 342.031 119.39 374.903C126.895 400.218 137.859 423.935 151.643 444.249C152.625 445.693 153.62 447.121 154.63 448.534C156.368 450.968 158.142 453.335 159.952 455.635C171.306 470.103 184.233 482.387 198.45 491.684C206.527 496.983 215.198 501.312 224.286 504.584C248.532 513.271 274.552 513.632 298.514 504.584C302.53 503.07 306.449 501.309 310.247 499.311C312.352 498.211 314.434 497.027 316.492 495.761C320.46 493.323 324.357 490.601 328.224 487.772C333.588 483.843 338.869 479.701 344.256 475.831L344.718 475.494C351.045 470.949 357.45 466.789 364.126 463.795C368.574 461.746 373.282 460.318 378.118 459.552C385.276 458.534 392.569 459.101 399.484 461.215C400.797 461.593 402.109 462.025 403.41 462.499C407.64 464.063 411.738 465.965 415.663 468.185C432.718 477.653 449.04 492.749 465.787 504.584C468.153 506.276 470.583 507.903 472.996 509.436C494.362 523.005 517.863 529.621 541.115 536.035C567.478 543.314 595.379 550.379 620.884 539.047C635.669 532.485 648.472 520.04 658.732 504.584C663.227 497.771 667.17 490.61 670.523 483.168C672.191 479.488 673.75 475.74 675.201 471.925C683.634 449.735 688.536 425.355 691.919 400.916C694.426 382.927 696.13 364.506 694.137 346.434Z" fill="#2196F3"/>
<g id="Group" opacity="0.1">
<path id="Vector_2" opacity="0.1" d="M293.139 387.507C293.322 388.034 293.511 388.542 293.73 389.039C297.629 385.982 301.406 382.826 305.061 379.572C307.246 378.597 309.052 376.935 310.206 374.838C311.258 373.843 312.305 372.826 313.34 371.814C312.892 371.311 312.412 370.839 311.903 370.4C308.402 367.328 304.073 366.038 300.117 367.346C296.161 368.654 293.458 372.269 292.471 376.814C291.736 380.374 291.967 384.066 293.139 387.507V387.507Z" fill="#3F3D56"/>
<path id="Vector_3" opacity="0.1" d="M286.646 367.849C287.752 371.301 289.759 374.396 292.459 376.814C295.96 379.873 300.283 381.169 304.245 379.856C304.517 379.761 304.777 379.66 305.049 379.554C307.234 378.579 309.041 376.917 310.194 374.82C310.987 373.438 311.56 371.941 311.891 370.382C312.575 366.822 312.336 363.146 311.197 359.705C310.059 356.264 308.058 353.172 305.386 350.724C301.879 347.653 297.556 346.363 293.6 347.671C289.644 348.978 286.941 352.594 285.954 357.139C285.224 360.706 285.463 364.405 286.646 367.849Z" fill="#3F3D56"/>
<path id="Vector_4" opacity="0.1" d="M297.727 360.234C304.509 357.991 307.628 348.971 304.693 340.087C301.759 331.203 293.882 325.82 287.1 328.063C280.318 330.306 277.199 339.326 280.134 348.21C283.068 357.094 290.945 362.477 297.727 360.234Z" fill="#3F3D56"/>
<path id="Vector_5" opacity="0.1" d="M291.235 340.578C298.017 338.335 301.136 329.315 298.202 320.431C295.267 311.547 287.39 306.164 280.608 308.407C273.827 310.65 270.708 319.67 273.642 328.554C276.576 337.438 284.453 342.821 291.235 340.578Z" fill="#3F3D56"/>
<path id="Vector_6" opacity="0.1" d="M284.742 320.923C291.523 318.68 294.642 309.66 291.708 300.776C288.774 291.892 280.897 286.509 274.115 288.752C267.333 290.995 264.214 300.015 267.148 308.899C270.083 317.783 277.96 323.166 284.742 320.923Z" fill="#3F3D56"/>
<path id="Vector_7" opacity="0.1" d="M280.963 155.087C281.938 152.395 282.729 149.638 283.328 146.838L249.313 152.211L284.292 140.927C285.229 132.532 284.445 124.034 281.988 115.952C279.532 107.871 275.454 100.375 270.005 93.9242L231.223 133.713L263.902 87.6753C257.547 82.023 250.096 77.7404 242.015 75.0942C233.934 72.448 225.395 71.4949 216.93 72.2943C208.465 73.0936 200.254 75.6283 192.811 79.7405C185.367 83.8526 178.849 89.4542 173.662 96.1964C168.476 102.939 164.732 110.677 162.664 118.93C160.596 127.183 160.248 135.773 161.642 144.166C163.036 152.56 166.142 160.576 170.766 167.716C175.39 174.856 181.434 180.967 188.521 185.668C187.003 189.86 185.942 194.203 185.357 198.622L234.44 206.539L184.831 206.314C184.759 216.626 187.258 226.793 192.102 235.894C196.946 244.996 203.981 252.745 212.571 258.441C208.617 269.379 207.818 281.209 210.266 292.579C212.714 303.95 218.31 314.401 226.414 322.739C234.518 331.078 244.803 336.965 256.094 339.73C267.385 342.495 279.225 342.024 290.261 338.373C301.297 334.722 311.084 328.036 318.502 319.082C325.92 310.127 330.671 299.265 332.21 287.736C333.75 276.207 332.016 264.477 327.208 253.888C322.399 243.299 314.71 234.277 305.019 227.854C309.751 214.782 309.954 200.498 305.594 187.297C301.234 174.096 292.565 162.745 280.98 155.069L280.963 155.087Z" fill="#6C63FF"/>
<path id="Vector_8" opacity="0.1" d="M187.929 226.244C192.272 239.451 200.942 250.804 212.536 258.465C208.59 269.402 207.798 281.23 210.251 292.596C212.704 303.963 218.303 314.409 226.409 322.742C234.514 331.075 244.799 336.958 256.087 339.719C267.376 342.481 279.213 342.008 290.246 338.356C301.279 334.705 311.063 328.021 318.48 319.068C325.896 310.116 330.646 299.256 332.187 287.731C333.728 276.205 331.997 264.478 327.193 253.89C322.389 243.302 314.705 234.279 305.019 227.854C309.579 215.232 185.765 219.611 187.929 226.244Z" fill="black"/>
</g>
<path id="Vector_9" d="M338.502 220.055C337.03 217.049 336.48 213.658 335.948 210.332C332.825 190.698 329.904 169.502 338.384 151.708C339.721 148.909 341.341 146.187 343.706 144.276C346.237 142.234 349.377 141.264 352.311 139.938C360.826 136.104 367.686 129.222 375.173 123.511C382.659 117.801 391.695 113.038 400.868 114.493C405.598 115.245 409.974 117.612 414.563 119.097C427.526 123.298 442.488 120.559 454.132 127.843C458.336 130.476 461.766 134.234 465.137 137.95L480.175 154.519C484.25 159.004 488.401 163.602 490.867 169.224C493.333 174.845 493.853 181.775 490.713 187.018C489.134 189.663 486.639 191.953 486.367 195.059C486.071 198.432 488.519 201.332 489.412 204.587C491.778 213.185 483.103 220.564 475.19 223.96C451.281 234.197 424.977 233.02 399.667 232.6C380.82 232.274 349.372 242.174 338.502 220.055Z" fill="#3F3D56"/>
<path id="Vector_10" d="M381.021 262.607C379.36 266.578 375.788 269.383 372.257 271.85C368.727 274.318 364.96 276.667 360.708 276.868C368.201 286.508 378.449 293.597 388.467 300.538C393.132 303.763 397.863 306.982 403.186 308.805C408.07 310.473 413.268 310.888 418.378 311.586C424.883 312.48 431.358 313.858 437.893 313.586C449.537 313.101 460.672 307.225 468.395 298.491C476.119 289.756 480.542 278.371 481.737 266.755C477.597 266.69 473.777 264.388 470.436 261.879C466.349 258.82 462.517 255.281 459.88 250.908C457.023 246.174 455.74 240.683 454.439 235.304C440.654 234.89 426.87 234.481 413.079 234.748C408.058 234.842 403.026 235.038 398.13 236.286C393.464 237.47 383.718 240.523 380.874 244.731C379.235 247.157 380.874 249.654 381.465 252.269C382.222 255.707 382.411 259.299 381.021 262.607Z" fill="#BE6F72"/>
<path id="Vector_11" opacity="0.1" d="M381.021 262.607C379.36 266.578 375.788 269.383 372.257 271.85C368.727 274.318 364.96 276.667 360.708 276.868C368.201 286.508 378.449 293.597 388.467 300.538C393.132 303.763 397.863 306.982 403.186 308.805C408.07 310.473 413.268 310.888 418.378 311.586C424.883 312.48 431.358 313.858 437.893 313.586C449.537 313.101 460.672 307.225 468.395 298.491C476.119 289.756 480.542 278.371 481.737 266.755C477.597 266.69 473.777 264.388 470.436 261.879C466.349 258.82 462.517 255.281 459.88 250.908C457.023 246.174 455.74 240.683 454.439 235.304C440.654 234.89 426.87 234.481 413.079 234.748C408.058 234.842 403.026 235.038 398.13 236.286C393.464 237.47 383.718 240.523 380.874 244.731C379.235 247.157 380.874 249.654 381.465 252.269C382.222 255.707 382.411 259.299 381.021 262.607Z" fill="black"/>
<path id="Vector_12" d="M396.616 278.957C400.56 283.863 404.623 288.869 410.028 292.088C411.678 293.064 413.523 293.863 415.439 293.798C418.277 293.68 420.625 291.656 422.707 289.715C433.1 280.035 442.97 269.807 452.275 259.074C455.19 255.707 458.188 252.198 462.18 250.24C465.787 282.808 466.728 315.617 464.995 348.339C465.014 348.957 464.871 349.569 464.581 350.115C463.96 351.055 462.659 351.191 461.53 351.233C428.147 352.487 393.428 353.493 362.855 339.99C364.978 333.688 364.629 326.871 364.836 320.22C365.173 309.314 367.065 298.514 369.679 287.94C370.962 282.75 372.423 277.608 373.972 272.495C375.261 268.211 376.243 260.66 379.123 257.423C385.746 263.341 391.051 272.034 396.616 278.957Z" fill="#E3E8F4"/>
<path id="Vector_13" d="M411.772 294.816H415.912L426.556 312.568L415.32 340.38L401.719 313.16L411.772 294.816Z" fill="#3F3D56"/>
<path id="Vector_14" d="M411.4 322.865C407.551 317.244 404.898 310.891 403.606 304.201C403.192 302.059 402.914 299.875 402.157 297.828C401.033 294.792 398.916 292.248 397.006 289.626C389.923 279.904 385.361 268.575 383.73 256.654C382.996 251.246 382.506 245.05 378.141 241.778C375.397 239.724 371.743 239.411 368.313 239.47C355.048 239.802 342.343 244.89 332.512 253.808C330.877 255.43 329.15 256.955 327.337 258.376C325.48 259.647 323.499 260.725 321.424 261.595C316.184 263.962 310.708 265.927 305.002 266.525C303.535 266.586 302.081 266.826 300.673 267.241C298.97 267.832 297.568 269.081 296.131 270.199C291.541 273.737 286.267 276.284 280.643 277.679C272.707 296.12 266.567 315.285 262.311 334.907C261.241 339.789 260.283 344.706 258.822 349.487C256.805 356.115 253.837 362.435 251.856 369.074C243.979 395.495 252.252 424.278 246.947 451.327L531.429 451.717C526.958 444.776 528.567 435.959 528.182 427.71C527.821 420.112 525.894 412.686 524.557 405.194C522.322 392.667 521.748 379.897 521.518 367.175C521.423 361.801 521.417 356.251 523.493 351.298C527.39 342.002 537.502 337.096 547.076 333.942C551.653 332.439 556.467 331.066 560.086 327.853C563.794 324.533 565.722 319.657 566.905 314.835C560.453 302.112 552.067 289.981 541.476 280.436C537.496 276.886 533.244 273.554 529.885 269.4C527.839 266.862 526.142 264.033 523.883 261.708C518.23 255.832 509.69 253.619 501.553 253.293C499.04 253.192 496.491 253.24 494.055 252.613C487.065 250.837 482.612 244.003 476.314 240.464C471.932 238.017 466.816 237.231 461.902 238.251C458.354 238.991 454.723 241.097 453.925 244.6C453.481 246.571 454.025 248.606 454.232 250.612C454.871 256.784 452.31 262.832 449.212 268.205C438.076 287.384 419.868 302.349 411.4 322.865Z" fill="#013259"/>
<path id="Vector_15" d="M473.558 204.575C473.555 217.838 469.143 230.724 461.017 241.203C452.891 251.682 441.513 259.158 428.673 262.454C415.834 265.75 402.264 264.679 390.1 259.409C377.936 254.14 367.869 244.971 361.486 233.347C355.102 221.723 352.764 208.304 354.839 195.204C356.915 182.104 363.286 170.067 372.95 160.989C382.614 151.911 395.021 146.307 408.218 145.061C421.414 143.815 434.65 146.996 445.841 154.105C454.335 159.5 461.329 166.956 466.175 175.779C471.02 184.602 473.56 194.507 473.558 204.575V204.575Z" fill="#BE6F72"/>
<path id="Vector_16" d="M675.213 471.913V444.232H151.655C152.637 445.675 153.632 447.104 154.641 448.516C155.404 450.324 156.448 451.999 157.734 453.481C158.419 454.264 159.171 454.987 159.981 455.64C171.336 470.109 184.263 482.393 198.479 491.69C206.556 496.989 215.228 501.318 224.316 504.59H658.755L675.213 471.913Z" fill="#00213A"/>
<path id="Vector_17" d="M425.013 412.573C416.988 411.934 408.644 409.934 401.086 412.703C398.51 413.733 396.065 415.068 393.807 416.68C385.644 422.164 378.125 428.552 371.394 435.722C369.448 437.788 367.544 439.965 366.35 442.545C364.664 446.184 364.516 450.333 363.393 454.185C362.748 456.392 361.767 458.629 362.157 460.895C362.547 463.162 365.161 465.191 367.118 463.984C367.021 464.616 367.063 465.262 367.244 465.875C367.424 466.489 367.737 467.055 368.162 467.533C368.586 468.011 369.11 468.39 369.698 468.642C370.285 468.894 370.921 469.013 371.56 468.99C374.552 468.887 377.442 467.869 379.839 466.073V466.073C379.915 466.791 380.265 467.451 380.816 467.918C381.366 468.384 382.075 468.62 382.795 468.576C387.923 468.239 392.807 465.617 397.195 462.753C402.346 459.416 407.461 455.617 413.493 454.469C409.782 456.162 406.514 458.692 403.943 461.86C402.955 463.073 402.033 464.493 403.121 466.369C403.771 467.422 404.772 468.212 405.947 468.6C412.701 470.967 420.04 467.049 424.546 461.617C426.361 459.422 427.964 456.883 430.459 455.552C434.475 453.392 439.424 454.907 443.942 454.279C448.957 453.593 453.174 450.321 457.78 448.208C463.913 445.403 470.749 444.658 477.295 442.989C478.081 442.874 478.806 442.499 479.353 441.924C479.762 441.241 479.939 440.443 479.856 439.652C479.827 431.547 479.216 423.455 478.029 415.437C477.93 414.146 477.535 412.895 476.875 411.78C475.586 409.946 473.138 409.413 470.932 409.046C467.384 408.455 463.404 407.129 459.832 407.141C456.402 407.141 453.097 409.082 449.826 410.035C441.776 412.374 433.369 413.234 425.013 412.573Z" fill="#BE6F72"/>
<path id="Vector_18" d="M462.423 401.904C453.558 402.836 445.219 406.566 438.614 412.555C445.989 410.691 453.925 408.851 461.033 411.55C464.495 412.864 467.489 415.178 469.636 418.198C471.782 421.218 472.984 424.807 473.089 428.512C473.194 432.216 472.198 435.868 470.226 439.004C468.255 442.141 465.397 444.622 462.014 446.131C463.451 447.747 465.563 448.54 467.662 449.149C482.831 453.575 499.069 450.924 514.581 447.906C517.419 447.356 520.494 446.628 522.227 444.291C523.771 442.178 523.723 439.332 523.587 436.711C523.191 429.142 522.535 421.325 519.105 414.585C514.457 405.437 506.385 402.028 496.662 403.088C485.226 404.307 473.871 400.744 462.423 401.904Z" fill="#E3E8F4"/>
<path id="Vector_19" d="M558.933 304.947C563.836 309.615 567.372 315.509 570.618 321.45C581.618 341.566 590.046 362.985 595.704 385.205C596.26 387.389 596.81 389.631 598.111 391.472C600.003 394.14 603.214 395.614 605.278 398.135C607.756 401.2 608.235 405.52 607.419 409.378C606.603 413.236 604.657 416.757 602.688 420.171C597.301 429.509 590.944 439.148 581.05 443.415C576.911 445.19 572.387 445.924 567.91 446.51C551.096 448.724 534.105 449.273 517.183 448.149C520.14 444.717 520.424 439.651 519.377 435.243C518.33 430.834 516.148 426.793 514.646 422.526C513.463 419.195 512.629 415.644 510.554 412.78C509.024 410.815 507.138 409.155 504.995 407.887C500.125 404.793 494.647 402.783 488.933 401.993C493.173 398.679 498.667 397.578 503.836 396.075C509.004 394.572 514.409 392.265 517.118 387.613C518.744 384.826 519.193 381.518 519.412 378.299C520.073 368.613 518.942 358.888 516.077 349.611C514.173 343.44 511.476 336.99 513.12 330.753C513.96 327.605 515.846 324.835 517.697 322.184C521.305 316.977 525.042 311.645 530.305 308.13C534.847 305.095 540.246 303.668 545.651 303.29C549.702 303.023 555.858 302.041 558.933 304.947Z" fill="#013259"/>
<path id="Vector_20" d="M346.131 486.317C346.084 492.494 329.295 499.335 309.869 499.335C290.442 499.335 274.227 492.512 273.967 486.317C273.062 464.83 290.436 476.926 309.869 476.926C329.301 476.926 346.308 461.582 346.131 486.317Z" fill="#3F3D56"/>
<path id="Vector_21" opacity="0.2" d="M346.131 486.317C346.084 492.494 329.295 499.335 309.869 499.335C290.442 499.335 274.227 492.512 273.967 486.317C273.062 464.83 290.436 476.926 309.869 476.926C329.301 476.926 346.308 461.582 346.131 486.317Z" fill="black"/>
<path id="Vector_22" d="M345.049 476.926C345.049 483.109 329.295 489.944 309.869 489.944C290.442 489.944 274.688 483.127 274.688 476.926C274.688 470.724 290.436 467.54 309.869 467.54C329.301 467.54 345.049 470.748 345.049 476.926Z" fill="#3F3D56"/>
<path id="Vector_23" opacity="0.1" d="M345.049 476.926C345.049 483.109 329.295 489.944 309.869 489.944C290.442 489.944 274.688 483.127 274.688 476.926C274.688 470.724 290.436 467.54 309.869 467.54C329.301 467.54 345.049 470.748 345.049 476.926Z" fill="white"/>
<path id="Vector_24" d="M338.189 474.488C338.153 479.31 325.061 484.624 309.904 484.624C294.747 484.624 282.11 479.298 281.897 474.488C281.193 457.729 294.747 467.162 309.904 467.162C325.061 467.162 338.331 455.197 338.189 474.488Z" fill="#3F3D56"/>
<path id="Vector_25" opacity="0.2" d="M338.189 474.488C338.153 479.31 325.061 484.624 309.904 484.624C294.747 484.624 282.11 479.298 281.897 474.488C281.193 457.729 294.747 467.162 309.904 467.162C325.061 467.162 338.331 455.197 338.189 474.488Z" fill="black"/>
<path id="Vector_26" d="M337.343 465.972C337.343 471.363 325.061 477.304 309.904 477.304C294.747 477.304 282.459 471.387 282.459 465.972C282.459 460.558 294.747 457.794 309.904 457.794C325.061 457.794 337.343 460.576 337.343 465.972Z" fill="#3F3D56"/>
<path id="Vector_27" opacity="0.1" d="M337.343 465.972C337.343 471.363 325.061 477.304 309.904 477.304C294.747 477.304 282.459 471.387 282.459 465.972C282.459 460.558 294.747 457.794 309.904 457.794C325.061 457.794 337.343 460.576 337.343 465.972Z" fill="white"/>
<path id="Vector_28" d="M244.138 501.714C244.138 501.714 249.331 495.986 250.224 489.547C251.117 483.109 224.854 473.221 224.854 473.221C224.854 473.221 215.747 478.547 215.44 483.535C215.44 483.535 232.873 502.282 244.138 501.714Z" fill="#3F3D56"/>
<path id="Vector_29" opacity="0.2" d="M244.138 501.714C244.138 501.714 249.331 495.986 250.224 489.547C251.117 483.109 224.854 473.221 224.854 473.221C224.854 473.221 215.747 478.547 215.44 483.535C215.44 483.535 232.873 502.282 244.138 501.714Z" fill="black"/>
<path id="Vector_30" d="M243.901 501.974C245.524 499.267 240.307 493.149 232.248 488.309C224.188 483.469 216.338 481.74 214.715 484.447C213.091 487.154 218.309 493.272 226.368 498.112C234.428 502.952 242.277 504.681 243.901 501.974Z" fill="#3F3D56"/>
<path id="Vector_31" opacity="0.1" d="M243.901 501.974C245.524 499.267 240.307 493.149 232.248 488.309C224.188 483.469 216.338 481.74 214.715 484.447C213.091 487.154 218.309 493.272 226.368 498.112C234.428 502.952 242.277 504.681 243.901 501.974Z" fill="white"/>
<path id="Vector_32" d="M250.59 487.577L265.528 462.659L250.336 449.747L238.491 447.528L234.795 454.197L224.399 473.499L250.59 487.577Z" fill="#3F3D56"/>
<path id="Vector_33" opacity="0.1" d="M250.59 487.577L265.528 462.659L250.336 449.747L238.491 447.528L234.795 454.197L224.399 473.499L250.59 487.577Z" fill="white"/>
<path id="Vector_34" d="M265.729 465.114C265.729 465.114 275.818 454.386 273.228 448.587C270.637 442.788 256.959 431.166 248.248 432.935C239.538 434.704 238.142 447.557 238.142 447.557L265.729 465.114Z" fill="#3F3D56"/>
<path id="Vector_35" opacity="0.2" d="M265.729 465.114C265.729 465.114 275.818 454.386 273.228 448.587C270.637 442.788 256.959 431.166 248.248 432.935C239.538 434.704 238.142 447.557 238.142 447.557L265.729 465.114Z" fill="black"/>
<path id="Vector_36" d="M150.975 417.97L228.248 465.002C228.248 465.002 235.593 464.049 234.795 454.208L158.261 406.668C156.703 405.699 154.857 405.302 153.039 405.543C150.945 405.827 148.468 406.591 147.663 408.585C147.458 409.092 147.315 409.623 147.238 410.165C147.022 411.69 147.261 413.244 147.926 414.633C148.591 416.022 149.652 417.183 150.975 417.97Z" fill="#3F3D56"/>
<path id="Vector_37" opacity="0.2" d="M150.975 417.97L228.248 465.002C228.248 465.002 235.593 464.049 234.795 454.208L158.261 406.668C156.703 405.699 154.857 405.302 153.039 405.543C150.945 405.827 148.468 406.591 147.663 408.585C147.458 409.092 147.315 409.623 147.238 410.165C147.022 411.69 147.261 413.244 147.926 414.633C148.591 416.022 149.652 417.183 150.975 417.97Z" fill="black"/>
<path id="Vector_38" d="M250.578 491.086C250.982 491.063 251.368 490.912 251.679 490.654C251.991 490.397 252.212 490.046 252.311 489.654C252.69 488.323 251.998 487.044 251.27 485.979C249.971 484.079 248.35 482.421 246.48 481.08C243.334 478.801 240.283 476.233 236.723 474.57C234.662 473.652 232.503 472.971 230.289 472.541C228.629 472.159 226.93 471.972 225.227 471.984C224.924 471.993 224.632 472.093 224.388 472.272C224.144 472.45 223.96 472.699 223.86 472.985C223.761 473.27 223.751 473.58 223.831 473.871C223.911 474.163 224.078 474.423 224.31 474.618V474.618C225.097 475.14 225.976 475.51 226.9 475.707C231.507 477.062 235.771 479.411 239.762 482.08C241.912 483.464 243.926 485.049 245.776 486.814C247.007 488.033 248.58 491.133 250.578 491.086Z" fill="#3F3D56"/>
<path id="Vector_39" opacity="0.2" d="M250.578 491.086C250.982 491.063 251.368 490.912 251.679 490.654C251.991 490.397 252.212 490.046 252.311 489.654C252.69 488.323 251.998 487.044 251.27 485.979C249.971 484.079 248.35 482.421 246.48 481.08C243.334 478.801 240.283 476.233 236.723 474.57C234.662 473.652 232.503 472.971 230.289 472.541C228.629 472.159 226.93 471.972 225.227 471.984C224.924 471.993 224.632 472.093 224.388 472.272C224.144 472.45 223.96 472.699 223.86 472.985C223.761 473.27 223.751 473.58 223.831 473.871C223.911 474.163 224.078 474.423 224.31 474.618V474.618C225.097 475.14 225.976 475.51 226.9 475.707C231.507 477.062 235.771 479.411 239.762 482.08C241.912 483.464 243.926 485.049 245.776 486.814C247.007 488.033 248.58 491.133 250.578 491.086Z" fill="black"/>
<path id="Vector_40" d="M262.914 467.02C262.914 467.02 270.495 467.203 264.221 459.576C257.947 451.948 246.723 444.38 238.733 446.09C238.733 446.09 235.422 448.835 238.284 449.309C240.998 449.759 253.659 452.268 259.478 459.327C260.115 460.094 260.826 460.795 261.601 461.422C262.967 462.534 264.807 464.641 262.914 467.02Z" fill="#3F3D56"/>
<path id="Vector_41" opacity="0.2" d="M262.914 467.02C262.914 467.02 270.495 467.203 264.221 459.576C257.947 451.948 246.723 444.38 238.733 446.09C238.733 446.09 235.422 448.835 238.284 449.309C240.998 449.759 253.659 452.268 259.478 459.327C260.115 460.094 260.826 460.795 261.601 461.422C262.967 462.534 264.807 464.641 262.914 467.02Z" fill="black"/>
<path id="Vector_42" d="M275.273 450.212C276.897 447.505 271.679 441.387 263.62 436.547C255.56 431.707 247.71 429.978 246.087 432.685C244.463 435.392 249.681 441.51 257.74 446.35C265.8 451.19 273.65 452.919 275.273 450.212Z" fill="#3F3D56"/>
<path id="Vector_43" opacity="0.1" d="M275.273 450.212C276.897 447.505 271.679 441.387 263.62 436.547C255.56 431.707 247.71 429.978 246.087 432.685C244.463 435.392 249.681 441.51 257.74 446.35C265.8 451.19 273.65 452.919 275.273 450.212Z" fill="white"/>
<path id="Vector_44" d="M225.227 448.255C225.124 449.634 224.686 450.966 223.95 452.136C223.214 453.306 222.202 454.278 221.004 454.966C217.036 457.084 211.466 455.197 209.597 451.102C208.627 448.971 208.609 446.581 208.414 444.232C208.351 443.465 208.248 442.703 208.107 441.947C207.515 438.9 204.996 435.663 201.951 436.267C199.437 436.758 198.113 439.58 197.811 442.125C197.733 442.825 197.694 443.528 197.693 444.232C197.693 444.965 197.722 445.699 197.764 446.433C197.846 447.936 197.977 449.445 197.971 450.948C197.971 453.907 197.332 457.049 195.197 459.078C192.607 461.546 188.633 461.659 185.049 461.617C176.303 461.528 166.569 461.025 159.987 455.64C159.177 454.987 158.425 454.264 157.74 453.481C156.454 451.999 155.41 450.324 154.647 448.516C154.061 447.135 153.611 445.7 153.305 444.232C152.323 439.646 152.542 434.645 153.346 429.994C153.867 426.953 154.872 423.621 157.096 421.68C157.625 421.217 158.224 420.84 158.87 420.562C159.934 420.112 161.141 419.97 162.069 419.266C162.997 418.562 163.601 417.284 164.582 416.514C166.552 414.97 169.544 415.633 171.85 415.112H171.951L172.075 415.076C174.564 414.485 176.865 413.124 179.213 412.118C180.224 411.686 181.235 411.271 182.252 410.905C184.785 409.892 187.519 409.487 190.236 409.721C199.106 410.733 209.751 416.118 215.824 422.58C217.32 424.066 218.485 425.853 219.242 427.823C219.738 429.473 220.013 431.183 220.058 432.906C220.218 435.338 220.348 437.764 221.554 439.841C222.288 441.095 223.364 442.119 224.127 443.391C224.303 443.677 224.457 443.976 224.588 444.285C225.13 445.534 225.35 446.899 225.227 448.255V448.255Z" fill="#BE6F72"/>
<path id="Vector_45" d="M205.718 419.047C209.331 420.917 212.885 423.029 215.723 425.941C218.562 428.852 220.655 432.669 220.821 436.74C223.302 433.737 225.431 430.459 227.166 426.97C228.538 424.219 229.668 420.964 228.45 418.136C227.867 416.938 227.049 415.871 226.043 414.999C220.72 409.958 213.565 407.171 206.327 406.029C198.503 404.792 182.873 402.093 181.673 413.49C190.437 413.076 197.888 415.011 205.718 419.047Z" fill="#E3E8F4"/>
<path id="Vector_46" d="M302.654 273.324C296.864 275.827 290.087 274.057 283.967 275.572C279.449 276.691 275.564 279.525 271.897 282.395C264.588 288.111 257.385 294.502 253.476 302.923C252.199 305.68 251.288 308.609 249.756 311.207C247.279 315.444 243.322 318.598 239.201 321.267C228.668 328.06 216.439 332.309 207.066 340.629C203.056 344.179 199.68 348.393 196.54 352.73C192.849 357.819 189.319 363.5 189.248 369.784C189.248 372.246 189.733 374.743 189.248 377.163C188.207 382.578 182.743 385.939 180.277 390.874C177.912 395.578 178.473 401.389 175.842 405.934C174.115 408.893 170.987 411.851 171.974 415.118C179.224 409.668 187.941 407.425 196.812 409.2C201.253 410.082 205.398 412.064 209.372 414.236C213.979 416.757 218.521 419.621 221.85 423.704C225.179 427.787 227.172 433.219 225.989 438.338C230.785 435.971 233.624 430.917 235.593 425.947C237.562 420.976 239.065 415.668 242.335 411.461C244.02 409.289 246.114 407.484 248.107 405.597C259.171 395.105 267.148 381.85 274.978 368.766C283.052 355.282 291.122 341.791 299.189 328.291C301.424 324.545 303.671 320.776 305.285 316.728C310.708 303.118 307.196 287.224 302.654 273.324Z" fill="#013259"/>
<path id="Vector_47" d="M640.459 454.084C659.078 454.084 674.172 451.181 674.172 447.599C674.172 444.017 659.078 441.113 640.459 441.113C621.839 441.113 606.745 444.017 606.745 447.599C606.745 451.181 621.839 454.084 640.459 454.084Z" fill="#2196F3"/>
<path id="Vector_48" d="M639.891 449.989C642.059 449.989 643.817 447.687 643.817 444.847C643.817 442.007 642.059 439.705 639.891 439.705C637.722 439.705 635.964 442.007 635.964 444.847C635.964 447.687 637.722 449.989 639.891 449.989Z" fill="#3F3D56"/>
<path id="Vector_49" d="M639.891 443.699C642.059 443.699 643.817 441.397 643.817 438.557C643.817 435.717 642.059 433.415 639.891 433.415C637.722 433.415 635.964 435.717 635.964 438.557C635.964 441.397 637.722 443.699 639.891 443.699Z" fill="#3F3D56"/>
<path id="Vector_50" d="M639.891 437.415C642.059 437.415 643.817 435.112 643.817 432.272C643.817 429.432 642.059 427.13 639.891 427.13C637.722 427.13 635.964 429.432 635.964 432.272C635.964 435.112 637.722 437.415 639.891 437.415Z" fill="#3F3D56"/>
<path id="Vector_51" d="M639.891 431.13C642.059 431.13 643.817 428.828 643.817 425.988C643.817 423.148 642.059 420.846 639.891 420.846C637.722 420.846 635.964 423.148 635.964 425.988C635.964 428.828 637.722 431.13 639.891 431.13Z" fill="#3F3D56"/>
<path id="Vector_52" d="M639.891 424.846C642.059 424.846 643.817 422.544 643.817 419.704C643.817 416.864 642.059 414.562 639.891 414.562C637.722 414.562 635.964 416.864 635.964 419.704C635.964 422.544 637.722 424.846 639.891 424.846Z" fill="#3F3D56"/>
<path id="Vector_53" d="M639.891 418.562C642.059 418.562 643.817 416.259 643.817 413.419C643.817 410.579 642.059 408.277 639.891 408.277C637.722 408.277 635.964 410.579 635.964 413.419C635.964 416.259 637.722 418.562 639.891 418.562Z" fill="#3F3D56"/>
<path id="Vector_54" d="M639.891 412.277C642.059 412.277 643.817 409.975 643.817 407.135C643.817 404.295 642.059 401.993 639.891 401.993C637.722 401.993 635.964 404.295 635.964 407.135C635.964 409.975 637.722 412.277 639.891 412.277Z" fill="#3F3D56"/>
<path id="Vector_55" d="M654.592 364.121C655.127 363.439 655.615 362.722 656.053 361.973L645.739 360.275L656.893 360.358C657.962 358.028 658.546 355.505 658.608 352.942C658.67 350.379 658.209 347.83 657.253 345.452L642.286 353.221L656.088 343.067C654.796 340.829 653.057 338.881 650.98 337.346C648.903 335.81 646.531 334.719 644.014 334.14C641.497 333.562 638.887 333.508 636.349 333.983C633.81 334.458 631.396 335.452 629.258 336.901C627.119 338.351 625.302 340.225 623.92 342.409C622.538 344.592 621.619 347.036 621.223 349.59C620.826 352.144 620.959 354.752 621.614 357.252C622.269 359.752 623.432 362.091 625.03 364.121C624.197 365.186 623.48 366.337 622.889 367.553L636.278 374.518L621.99 369.719C620.987 372.684 620.739 375.852 621.268 378.938C621.796 382.023 623.085 384.927 625.018 387.389C622.837 390.164 621.481 393.498 621.104 397.009C620.727 400.52 621.345 404.066 622.888 407.242C624.43 410.418 626.834 413.095 629.825 414.969C632.816 416.842 636.273 417.836 639.802 417.836C643.331 417.836 646.788 416.842 649.779 414.969C652.77 413.095 655.174 410.418 656.717 407.242C658.259 404.066 658.877 400.52 658.5 397.009C658.123 393.498 656.767 390.164 654.586 387.389C657.191 384.071 658.607 379.974 658.607 375.755C658.607 371.536 657.191 367.439 654.586 364.121H654.592Z" fill="#2196F3"/>
<path id="Vector_56" opacity="0.1" d="M621.009 375.755C621.002 379.975 622.419 384.074 625.03 387.389C622.849 390.164 621.493 393.498 621.116 397.009C620.739 400.52 621.357 404.066 622.899 407.242C624.442 410.418 626.846 413.095 629.837 414.969C632.828 416.842 636.285 417.836 639.814 417.836C643.343 417.836 646.8 416.842 649.791 414.969C652.782 413.095 655.186 410.418 656.728 407.242C658.27 404.066 658.889 400.52 658.512 397.009C658.135 393.498 656.779 390.164 654.598 387.389C657.111 384.187 621.009 373.642 621.009 375.755Z" fill="black"/>
<path id="Vector_57" d="M384.262 178.479C388.402 180.076 392.441 182.372 396.882 182.674C402.517 183.053 407.84 180.177 413.44 179.384C423.7 177.934 433.44 183.526 443.079 187.325C452.718 191.124 465.137 192.698 472.204 185.118C478.206 178.674 477.378 167.957 472.553 160.62C467.727 153.282 459.844 148.536 452.05 144.447C443.452 139.938 434.487 135.838 424.912 134.246C404.593 130.879 383.949 139.287 367.089 151.128C361.495 155.057 355.965 159.643 353.292 165.922C351.778 169.472 351.305 174.017 352.624 177.715C354.788 183.798 356.208 183.077 360.696 181.491C369.271 178.473 374.339 174.68 384.262 178.479Z" fill="#3F3D56"/>
</g>
<path id="Vector_58" d="M858.752 609.39H2.24804C1.65182 609.39 1.08006 609.536 0.658469 609.795C0.236879 610.055 0 610.406 0 610.773C0 611.14 0.236879 611.492 0.658469 611.751C1.08006 612.01 1.65182 612.156 2.24804 612.156H858.752C859.348 612.156 859.92 612.01 860.342 611.751C860.763 611.492 861 611.14 861 610.773C861 610.406 860.763 610.055 860.342 609.795C859.92 609.536 859.348 609.39 858.752 609.39Z" fill="#CACACA"/>
<g id="man">
<path id="Vector_59" d="M64.299 595.451L80.5557 595.45L88.2903 532.732L64.2958 532.733L64.299 595.451Z" fill="#FFB8B8"/>
<path id="Vector_60" d="M60.1515 590.142L92.1683 590.141H92.1696C97.5808 590.141 102.77 592.291 106.597 596.118C110.423 599.945 112.573 605.135 112.573 610.547V611.211L60.1525 611.212L60.1515 590.142Z" fill="#2F2E41"/>
<path id="Vector_61" d="M118.961 595.451L135.218 595.45L142.952 532.732L118.958 532.733L118.961 595.451Z" fill="#FFB8B8"/>
<path id="Vector_62" d="M114.814 590.142L146.83 590.141H146.832C152.243 590.141 157.432 592.291 161.259 596.118C165.085 599.945 167.235 605.135 167.235 610.547V611.211L114.814 611.212L114.814 590.142Z" fill="#2F2E41"/>
<path id="Vector_63" d="M89.8513 375.202L93.7513 574.174L62.204 572.218L40.3181 445.483L33.4055 359.072L89.8513 375.202Z" fill="#2F2E41"/>
<path id="Vector_64" d="M143.992 341.791L148.413 577.328L111.622 576.277L103.674 436.266L89.8512 385.572L33.4062 359.073L42.6218 295.706L125.561 294.553L143.992 341.791Z" fill="#2F2E41"/>
<path id="Vector_65" d="M80.5605 130.95C96.1417 130.95 108.773 118.317 108.773 102.734C108.773 87.1497 96.1417 74.5166 80.5605 74.5166C64.9794 74.5166 52.3484 87.1497 52.3484 102.734C52.3484 118.317 64.9794 130.95 80.5605 130.95Z" fill="#FFB8B8"/>
<path id="Vector_66" d="M103.96 142.837L108.282 149.385L119.802 181.644L110.586 307.226L56.4445 308.38L49.5339 164.362L64.012 146.261L103.96 142.837Z" fill="#2196F3"/>
<path id="Vector_67" d="M27.6465 167.819L18.431 166.667C18.431 166.667 16.1271 167.819 14.9752 175.884C13.8233 183.949 0 255.381 0 255.381L18.431 342.943L39.1658 315.292L26.4946 266.902L39.1659 218.513L27.6465 167.819Z" fill="#2F2E41"/>
<path id="Vector_68" d="M145.144 166.667H152.056L169.335 259.989L153.208 332.574L137.08 306.075L141.688 277.272L139.385 251.925L131.321 236.946L145.144 166.667Z" fill="#2F2E41"/>
<path id="Vector_69" d="M97.2314 102.734L92.1019 101.451C92.1019 101.451 88.2548 79.6469 79.2782 82.2121C70.3015 84.7773 47.2189 87.3425 47.2189 77.0817C47.2189 66.821 69.0192 57.8429 81.8429 59.1255C94.6665 60.4081 111.044 64.6631 115.185 83.4947C121.821 113.683 101.491 121.308 101.491 121.308L101.83 120.209C102.769 117.157 102.836 113.903 102.024 110.815C101.211 107.727 99.5511 104.928 97.2314 102.734V102.734Z" fill="#2F2E41"/>
<path id="Vector_70" d="M19.5829 166.667L56.445 151.689L65.0845 145.352L91.0032 259.989L103.098 141.896L150.904 166.667L134.777 245.012L132.473 274.967L139.385 299.162C139.385 299.162 163.575 316.444 155.512 334.878C147.448 353.312 138.233 354.464 138.233 354.464C138.233 354.464 99.0667 317.596 96.7629 308.379C94.459 299.162 91.0032 283.032 91.0032 283.032C91.0032 283.032 71.4202 356.769 48.3815 355.616C25.3429 354.464 25.3428 330.269 25.3428 330.269L31.1024 304.922L40.318 278.423L35.7102 234.642L19.5829 166.667Z" fill="#2F2E41"/>
<g id="shield">
<path id="Vector_71" d="M629.628 250.021C626.047 250.009 622.483 249.548 619.017 248.648L618.334 248.459L617.7 248.142C594.791 236.659 575.463 221.491 560.255 203.06C547.665 187.714 537.85 170.29 531.25 151.571C523.358 129.16 519.561 105.514 520.04 81.7592C520.05 81.2606 520.058 80.8756 520.058 80.6103C520.058 69.0632 526.47 58.9315 536.392 54.7983C543.986 51.635 612.936 23.3224 617.917 21.2768C627.299 16.577 637.308 20.4997 638.91 21.1857C642.503 22.6542 706.243 48.7173 720.017 55.2744C734.212 62.0323 738 74.1727 738 80.2807C738 107.934 733.209 133.778 723.761 157.095C716.131 175.968 705.317 193.392 691.789 208.607C665.689 237.971 639.582 248.38 639.33 248.472C636.21 249.545 632.927 250.069 629.628 250.021ZM623.489 234.817C625.752 235.324 630.963 236.085 634.359 234.847C638.674 233.273 660.525 221.946 680.944 198.973C709.157 167.234 723.472 127.334 723.493 80.3827C723.442 79.4315 722.766 72.6472 713.78 68.3692C700.273 61.939 634.02 34.856 633.353 34.5831L633.17 34.5055C631.781 33.9238 627.363 32.6987 624.317 34.2943L623.707 34.5786C622.969 34.8818 549.778 64.9346 541.972 68.1861C536.511 70.4606 534.566 76.0954 534.566 80.6104C534.566 80.9403 534.557 81.4202 534.545 82.0406C533.921 114.166 541.357 193.218 623.489 234.817Z" fill="#3F3D56"/>
<path id="Vector_72" d="M620.927 27.4962C620.927 27.4962 546.806 57.8185 538.864 61.1144C530.923 64.4103 526.952 72.3204 526.952 80.2306C526.952 88.1408 520.996 191.358 620.927 241.263C620.927 241.263 629.997 243.763 636.878 241.263C643.759 238.763 731.116 196.576 731.116 79.901C731.116 79.901 731.116 68.0358 717.218 61.444C703.32 54.8522 636.127 27.4962 636.127 27.4962C636.127 27.4962 627.876 23.8707 620.927 27.4962Z" fill="#2196F3"/>
<path id="Vector_73" opacity="0.1" d="M628.617 51.1291V213.305C628.617 213.305 554.535 177.357 555.19 82.8513L628.617 51.1291Z" fill="black"/>
<path id="Vector_74" d="M630.178 167.406L606.435 137.038L620.242 126.355L631.484 140.734L669.462 100.853L682.161 112.822L630.178 167.406Z" fill="white"/>
</g>
</g>
</g>
<defs>
<clipPath id="clip0">
<rect width="586" height="473" fill="white" transform="translate(109 72)"/>
</clipPath>
</defs>
</svg>
